<svg width="25" height="25" viewBox="0 0 25 25" fill="none" xmlns="http://www.w3.org/2000/svg">
<path fill-rule="evenodd" clip-rule="evenodd" d="M16.7119 2.46124C17.0979 2.09576 17.7019 2.09576 18.0874 2.46124C18.7339 3.0733 24.3999 8.54718 24.3999 12.1873C24.3999 15.7532 21.7629 18.6878 18.2935 19.1229C16.6675 22.2142 13.4353 24.1873 9.8999 24.1873C4.66138 24.1873 0.399902 19.9258 0.399902 14.6873C0.399902 9.73175 8.28198 1.42365 9.18042 0.492737C9.55688 0.102356 10.2419 0.102844 10.6189 0.492249C10.7029 0.579163 12.4729 2.41876 14.4119 4.88116C15.6274 3.49225 16.6594 2.5108 16.7119 2.46124ZM2.3999 14.6873C2.3999 18.8228 5.7644 22.1873 9.8999 22.1873C12.8469 22.1873 15.5283 20.4527 16.7329 17.7684C17.177 16.8018 17.3999 15.7684 17.3999 14.6873C17.3999 13.5428 16.7363 11.2928 13.575 7.07233C12.1738 5.20636 10.7314 3.56671 9.89746 2.65167C7.28442 5.50519 2.3999 11.4966 2.3999 14.6873ZM19.1614 16.8062L19.1615 16.806C19.1651 16.7872 19.1688 16.7684 19.1729 16.7498C19.1793 16.7205 19.1853 16.6908 19.1912 16.6611L19.1913 16.6609L19.2 16.6182C19.2605 16.3272 19.3088 16.0333 19.3413 15.7347C19.3432 15.7178 19.3446 15.7007 19.3459 15.6836L19.3459 15.6835L19.3459 15.6834C19.3471 15.6681 19.3482 15.6528 19.3499 15.6378C19.3809 15.3243 19.3999 15.0079 19.3999 14.6873C19.3999 14.5572 19.3943 14.4249 19.3845 14.2894C19.3823 14.2618 19.379 14.2336 19.3757 14.2056L19.3757 14.2054C19.3737 14.1879 19.3716 14.1706 19.3699 14.1534L19.3696 14.1506C19.3607 14.0595 19.3517 13.9679 19.3379 13.8743C19.3323 13.8354 19.3249 13.7956 19.3176 13.7558L19.3083 13.7047L19.3062 13.6922L19.3062 13.692C19.292 13.6093 19.2779 13.527 19.2605 13.4422C19.252 13.4021 19.2421 13.3611 19.2322 13.3201L19.2322 13.32C19.2268 13.2977 19.2215 13.2754 19.2163 13.2532L19.2093 13.2237C19.1912 13.1472 19.1731 13.0708 19.1523 12.9927C19.1415 12.9524 19.1294 12.9114 19.1173 12.8702C19.1094 12.8436 19.1016 12.817 19.094 12.7903L19.0799 12.7431L19.0799 12.743C19.0586 12.6711 19.0372 12.5992 19.0134 12.5257C18.9964 12.4736 18.978 12.4206 18.9594 12.3674L18.9399 12.3113C18.9089 12.2217 18.8774 12.1321 18.843 12.0413C18.8149 11.9673 18.7849 11.8917 18.7549 11.8167C18.718 11.7247 18.6804 11.6317 18.6404 11.5377C18.6079 11.4608 18.5735 11.3834 18.5383 11.3047C18.4958 11.2098 18.4524 11.1138 18.407 11.0167C18.3694 10.9368 18.3303 10.8558 18.2903 10.7742C18.2424 10.6763 18.1929 10.5767 18.1414 10.4769C18.0989 10.3939 18.0554 10.3099 18.011 10.2252C17.9651 10.1386 17.9172 10.0507 17.8688 9.96205L17.845 9.91827L17.8292 9.88983C17.7868 9.81322 17.744 9.73603 17.7 9.65826C17.6404 9.55328 17.5779 9.44635 17.5149 9.33917L17.4889 9.295C17.4457 9.22138 17.4024 9.14777 17.3574 9.0733C17.3046 8.98538 17.2493 8.89637 17.1939 8.807L17.1938 8.8068L17.1528 8.74078L17.15 8.73622C17.0951 8.64719 17.0405 8.55883 16.9829 8.46881C16.9104 8.3548 16.8345 8.23834 16.7583 8.12238L16.7462 8.10381L16.746 8.10354C16.6899 8.0174 16.6342 7.93191 16.5759 7.8443C16.5088 7.7442 16.4388 7.64181 16.369 7.53967L16.3318 7.48517L16.2711 7.39617L16.2709 7.39594C16.2267 7.33096 16.1824 7.26594 16.1365 7.19977C16.0599 7.08974 15.9795 6.97733 15.8995 6.86541L15.8733 6.82867L15.8293 6.76642L15.8292 6.7664C15.775 6.68965 15.721 6.61327 15.6643 6.53522C15.6584 6.52667 15.6528 6.51886 15.6465 6.51031C16.313 5.73077 16.949 5.05768 17.4043 4.59186C19.573 6.79327 22.3999 10.2952 22.3999 12.1873C22.3999 14.3382 21.0569 16.1697 19.1475 16.8738C19.1527 16.8515 19.157 16.8288 19.1614 16.8062ZM12.9424 13.8943C12.552 13.5042 12.552 12.8707 12.9424 12.4803C13.3335 12.0897 13.9663 12.0897 14.3564 12.4803C15.0173 13.1407 15.3813 14.0198 15.3813 14.9547C15.3813 15.8897 15.0173 16.7689 14.3564 17.4297C14.1609 17.6253 13.9048 17.7227 13.6489 17.7227C13.3928 17.7227 13.1375 17.6253 12.9419 17.4297C12.5515 17.0399 12.5515 16.4063 12.9419 16.0157C13.2253 15.7327 13.3813 15.3558 13.3813 14.9547C13.3813 14.5543 13.2253 14.1773 12.9424 13.8943Z" fill="white"/>
</svg>
