<svg width="22" height="25" viewBox="0 0 22 25" fill="none" xmlns="http://www.w3.org/2000/svg">
<path fill-rule="evenodd" clip-rule="evenodd" d="M9.31727 1.59843C9.31727 2.14267 8.87608 2.58386 8.33184 2.58386C7.78761 2.58386 7.34642 2.14267 7.34642 1.59843C7.34642 1.0542 7.78761 0.613007 8.33184 0.613007C8.87608 0.613007 9.31727 1.0542 9.31727 1.59843ZM2.62755 7.06103C4.07871 7.06103 5.2551 5.88464 5.2551 4.43348C5.2551 2.98233 4.07871 1.80593 2.62755 1.80593C1.17639 1.80593 0 2.98233 0 4.43348C0 5.88464 1.17639 7.06103 2.62755 7.06103ZM2.18924 14.8512C2.18924 9.46787 6.56771 5.09018 11.9503 5.09018C17.332 5.09018 21.7121 9.46865 21.7121 14.8512C21.7121 20.233 17.332 24.613 11.9503 24.613C6.56771 24.613 2.18924 20.2338 2.18924 14.8512ZM3.94094 14.8489C3.94094 19.267 7.53371 22.8598 11.9503 22.8598C16.3676 22.8598 19.9604 19.267 19.9604 14.8489C19.9604 10.4339 16.3676 6.84032 11.9503 6.84032C7.53371 6.84032 3.94094 10.4331 3.94094 14.8489ZM6.28172 11.7496C6.96561 11.0657 7.9184 10.7238 9.14008 10.7238C10.3921 10.7238 11.3573 11.0587 12.0342 11.7309C12.7119 12.4024 13.0507 13.3443 13.0507 14.5559C13.0507 15.4364 12.9023 16.156 12.607 16.7203C12.3101 17.2798 11.8834 17.7189 11.3239 18.0329C10.7643 18.3461 10.0672 18.5023 9.23256 18.5023C8.38391 18.5023 7.68137 18.3663 7.1257 18.0974C6.56926 17.8269 6.11852 17.4003 5.77346 16.8135C5.42763 16.2291 5.2551 15.497 5.2551 14.6181C5.2551 13.3886 5.59705 12.4343 6.28172 11.7496ZM9.15562 16.763C9.65456 16.763 10.0408 16.6006 10.3151 16.2757C10.5887 15.9509 10.7262 15.3665 10.7278 14.5256C10.7278 13.8168 10.584 13.2992 10.2988 12.9728C10.012 12.6464 9.62425 12.4824 9.1362 12.4824C8.6668 12.4824 8.29066 12.6495 8.00699 12.9814C7.72256 13.3132 7.58034 13.8627 7.58034 14.6282C7.58034 15.3874 7.721 15.9322 8.00389 16.2648C8.28599 16.5975 8.66913 16.763 9.15562 16.763ZM15.6797 16.9497C15.6528 16.9722 15.6298 16.9915 15.6106 17.007C15.5752 17.0357 15.5375 17.0947 15.4976 17.1571C15.4319 17.2599 15.3603 17.3718 15.2837 17.3723H17.0818V18.2481H13.2924C13.3102 18.2481 13.3418 18.1446 13.3871 17.9961C13.4622 17.7498 13.575 17.3799 13.7253 17.1539C13.9662 16.7949 14.4177 16.4319 15.0814 15.9384C15.4871 15.6377 15.7459 15.41 15.8601 15.2538C15.9728 15.0983 16.0295 14.9491 16.0295 14.8092C16.0295 14.6577 15.9744 14.5287 15.8617 14.4207C15.749 14.3126 15.6083 14.2598 15.4381 14.2598C15.2609 14.2598 15.1172 14.315 15.0052 14.4253C14.8926 14.5372 14.8172 14.7339 14.7791 15.0144L13.3934 14.9009C13.4478 14.5108 13.5473 14.2069 13.6919 13.9893C13.8349 13.7702 14.0408 13.6023 14.3035 13.4873C14.5685 13.37 14.9322 13.3124 15.3993 13.3124C15.8865 13.3124 16.2642 13.3692 16.5362 13.4811C16.8051 13.5899 17.0173 13.7624 17.1735 13.9932C17.3282 14.2225 17.4059 14.4844 17.4059 14.7696C17.4059 15.0719 17.3165 15.3696 17.1401 15.6462C16.9621 15.9213 16.6388 16.24 16.1702 16.571C15.9475 16.7251 15.7844 16.8619 15.6797 16.9497Z" fill="white"/>
</svg>
