<svg width="21" height="24" viewBox="0 0 21 24" fill="none" xmlns="http://www.w3.org/2000/svg">
<path fill-rule="evenodd" clip-rule="evenodd" d="M20.1406 6.17954L20.1402 6.15913V6.15905C20.128 5.51867 20.1165 4.91321 20.1165 4.32727C20.1165 3.86333 19.7405 3.48721 19.2765 3.48721C15.6838 3.48721 12.9485 2.45472 10.6684 0.237863C10.3423 -0.0793436 9.82322 -0.0792316 9.49717 0.237863C7.21736 2.45472 4.48246 3.48721 0.890034 3.48721C0.426098 3.48721 0.0499752 3.86333 0.0499752 4.32727C0.0499752 4.91957 0.0383263 5.53192 0.0258935 6.17999L0.0258931 6.18001C-0.089251 12.2101 -0.246946 20.4685 9.80765 23.9536C9.89681 23.9845 9.98978 24 10.0827 24C10.1757 24 10.2688 23.9845 10.3578 23.9536C20.4132 20.4684 20.2558 12.2097 20.1406 6.17954ZM10.0829 22.2685C1.45971 19.1359 1.59008 12.2738 1.70579 6.21203C1.71273 5.84823 1.71945 5.49563 1.72416 5.14997C5.08887 5.00794 7.77953 3.98833 10.0829 1.98183C12.3864 3.98833 15.0775 5.00805 18.4425 5.14997C18.4472 5.49551 18.4539 5.84789 18.4608 6.21147C18.5764 12.2734 18.7067 19.1358 10.0829 22.2685ZM11.1429 13.2735C11.4993 13.6762 12.0422 13.8776 12.7714 13.8776C13.5007 13.8776 14.0435 13.6762 14.4 13.2735C14.7565 12.8707 14.951 12.3429 14.9837 11.6898C14.9909 11.4939 14.9958 11.3173 14.9982 11.1601L15 10.9388C15 10.8501 14.999 10.7525 14.997 10.6459L14.9837 10.1714C14.9565 9.52925 14.7605 9.0068 14.3959 8.60408C14.0313 8.20136 13.4898 8 12.7714 8C12.0531 8 11.5116 8.20136 11.1469 8.60408C10.7823 9.0068 10.5864 9.52925 10.5592 10.1714C10.5554 10.2781 10.5529 10.4354 10.5518 10.6434L10.5513 11.1386C10.5519 11.2948 10.5531 11.4251 10.555 11.5296L10.5592 11.6898C10.5918 12.3429 10.7864 12.8707 11.1429 13.2735ZM7.97959 13.7959C7.92517 13.7959 7.87891 13.7769 7.84082 13.7388C7.80272 13.7007 7.78367 13.6544 7.78367 13.6V12.5551H5.19592C5.1415 12.5551 5.09524 12.5361 5.05714 12.498C5.01905 12.4599 5 12.4136 5 12.3592V11.7959C5 11.7263 5.01916 11.6601 5.05747 11.5974L7.49796 8.22041C7.52517 8.17687 7.56599 8.14286 7.62041 8.11837C7.67483 8.09388 7.73469 8.08163 7.8 8.08163H8.69796C8.75782 8.08163 8.80544 8.09932 8.84082 8.13469C8.87619 8.17007 8.89388 8.21769 8.89388 8.27755V11.5837H9.62857C9.68844 11.5837 9.73605 11.6014 9.77143 11.6367C9.8068 11.6721 9.82449 11.7197 9.82449 11.7796V12.3592C9.82449 12.4136 9.8068 12.4599 9.77143 12.498C9.73605 12.5361 9.68844 12.5551 9.62857 12.5551H8.89388V13.6C8.89388 13.6544 8.87619 13.7007 8.84082 13.7388C8.80544 13.7769 8.75782 13.7959 8.69796 13.7959H7.97959ZM6.15102 11.6163H7.80816V9.27347L6.15102 11.6163ZM12.7714 12.9224C12.434 12.9224 12.181 12.8122 12.0122 12.5918C11.8589 12.3915 11.7707 12.1135 11.7478 11.758L11.7429 11.649C11.7398 11.5613 11.7376 11.4476 11.7363 11.3078L11.7351 10.7181C11.7359 10.527 11.7379 10.3758 11.7411 10.2646L11.7429 10.2122C11.7537 9.81496 11.8435 9.50476 12.0122 9.28163C12.181 9.0585 12.434 8.94422 12.7714 8.93878C13.1088 8.94422 13.3619 9.0585 13.5306 9.28163C13.6993 9.50476 13.7891 9.81496 13.8 10.2122L13.8045 10.3891C13.8061 10.481 13.8072 10.5907 13.8078 10.7181V11.1276C13.8068 11.3524 13.8042 11.5262 13.8 11.649C13.7891 12.0571 13.6993 12.3714 13.5306 12.5918C13.3619 12.8122 13.1088 12.9224 12.7714 12.9224Z" fill="white"/>
</svg>
