<svg width="13" height="25" viewBox="0 0 13 25" fill="none" xmlns="http://www.w3.org/2000/svg">
<path fill-rule="evenodd" clip-rule="evenodd" d="M10.3999 4.2V13.7278C11.6274 14.8264 12.3999 16.423 12.3999 18.2C12.3999 21.5137 9.71359 24.2 6.3999 24.2C3.08621 24.2 0.399902 21.5137 0.399902 18.2C0.399902 16.423 1.1724 14.8264 2.39992 13.7278V4.2C2.39992 1.99087 4.19078 0.200012 6.3999 0.200012C8.60903 0.200012 10.3999 1.99087 10.3999 4.2ZM2.39992 18.2C2.39992 20.4091 4.19078 22.2 6.3999 22.2C8.60903 22.2 10.3999 20.4091 10.4 18.2C10.4 17.0451 9.91056 15.9738 9.06615 15.2181L8.39997 14.6218V4.2C8.39997 3.09539 7.50451 2.19998 6.39995 2.19998C5.29539 2.19998 4.39993 3.09543 4.39993 4.2V14.6218L3.73375 15.2181C2.88934 15.9738 2.39992 17.0452 2.39992 18.2ZM5.39992 8.20003H7.39993V15.3707C8.56511 15.7826 9.3999 16.8938 9.3999 18.2C9.3999 19.8569 8.05676 21.2 6.3999 21.2C4.74305 21.2 3.3999 19.8569 3.3999 18.2C3.3999 16.8938 4.23472 15.7825 5.39992 15.3707V8.20003Z" fill="white"/>
</svg>
