<svg width="147" height="80" viewBox="0 0 147 80" fill="none" xmlns="http://www.w3.org/2000/svg">
<path fill-rule="evenodd" clip-rule="evenodd" d="M79.823 8.60695C80.9709 3.80097 74.5112 6.42351 74.5112 6.42351C74.9315 6.85835 75.3904 7.19347 75.8412 7.52272C76.6367 8.10361 77.4071 8.66621 77.8961 9.72591C78.6194 11.2931 79.823 8.60695 79.823 8.60695ZM62.2893 9.83264C62.2893 9.83264 57.4147 9.63088 57.8427 12.6277C57.8427 12.6277 57.7143 15.6918 60.7322 13.1895C61.0229 12.9485 61.3299 12.7142 61.627 12.4874L61.627 12.4874C63.059 11.3945 64.2602 10.4778 62.2893 9.83264ZM109.928 38.9081C109.84 37.4799 109.757 36.1309 105.712 35.6707C104.175 35.4954 103.686 34.475 103.548 34.0444C103.146 32.7955 103.824 31.2919 105.459 29.8106C108.732 26.8441 114.519 24.9298 120.07 27.3405C121.491 27.9574 122.246 28.8617 123.045 29.8191C123.993 30.9545 125.172 32.3668 128.237 33.9881C130.126 34.988 134.569 37.711 135 41.3886C135.135 42.5478 134.917 44.2575 133.138 45.8865C133.209 45.798 133.258 45.7284 133.288 45.6837L133.011 46.0007C133.054 45.9627 133.097 45.9246 133.138 45.8865C132.877 46.2117 132.319 46.7909 131.337 47.3155C131.29 48.2821 131.102 49.0173 130.716 49.1918C130.716 49.1918 130.55 48.6139 130.283 47.7839C129.416 48.0999 128.33 48.3445 126.984 48.4172C126.939 49.3881 126.751 50.1273 126.364 50.3024C126.364 50.3024 126.134 49.5037 125.78 48.4355C124.639 48.4109 123.341 48.27 121.866 47.9686C121.856 49.1354 121.674 50.0615 121.234 50.2603C121.234 50.2603 120.888 49.0559 120.389 47.6268C118.911 47.2464 117.275 46.7147 115.467 45.9962C110.758 44.1244 110.182 41.8827 109.995 39.7471L109.968 39.4509C109.95 39.2706 109.939 39.0868 109.928 38.9086L109.928 38.9081ZM131.811 41.7625C131.856 42.1423 131.817 42.7276 131.008 43.484C130.782 42.3344 130.469 41.3695 130.14 41.0148C128.782 39.5471 126.799 40.7664 128.036 42.469C128.416 42.9928 128.817 43.8306 129.188 44.7397C128.6 44.9567 127.806 45.1439 126.763 45.2017C126.537 43.7948 126.173 42.5411 125.788 42.1254C124.429 40.6574 122.446 41.877 123.683 43.5795C123.962 43.9625 124.25 44.5133 124.531 45.1371C123.651 45.0471 122.657 44.8786 121.536 44.6051C121.31 43.4324 120.992 42.4434 120.658 42.0833C119.3 40.6152 117.316 41.8349 118.554 43.5374C118.607 43.6105 118.66 43.6897 118.714 43.7744C118.061 43.5519 117.374 43.299 116.653 43.0124C113.39 41.7156 113.303 40.7238 113.194 39.4676L113.162 39.1289C113.151 39.0112 113.142 38.8658 113.132 38.7119C113.03 37.0386 112.823 33.6598 107.161 32.6389C107.681 32.0648 108.602 31.2885 110.009 30.6035C111.685 29.7883 115.055 28.6624 118.792 30.2856C119.483 30.5859 119.86 31.014 120.581 31.8767L120.581 31.8768C121.649 33.1566 123.113 34.9091 126.735 36.8259C129.648 38.3669 131.64 40.3049 131.811 41.7625ZM107.161 32.6389C106.839 32.9952 106.671 33.2736 106.636 33.4039C106.653 33.3409 106.664 33.1033 106.504 32.8465C106.343 32.5877 106.121 32.4911 106.056 32.4779L106.062 32.4789L106.075 32.4807C106.458 32.5243 106.819 32.5773 107.161 32.6389ZM31.8278 37.5399L31.8287 37.5335C31.9914 36.3708 32.3143 35.1885 33.1377 34.1961C36.0533 33.5647 39.1133 33.0004 42.298 32.5097C42.3049 32.8786 42.2335 33.1939 42.1302 33.4539C41.9625 33.8776 41.401 34.8709 39.814 34.9553C36.069 35.1536 35.3577 36.2036 35.1109 37.3544C33.9495 37.6339 32.8176 37.926 31.7172 38.23C31.7278 38.1676 31.7457 38.0636 31.7568 37.9999C31.7625 37.9669 31.7663 37.9447 31.7663 37.9448C31.7868 37.8308 31.8066 37.69 31.8277 37.5406L31.8277 37.5404L31.8277 37.5402L31.8277 37.5401L31.8278 37.5399ZM9.13935 43.9224L9.92801 43.3687C9.6969 43.121 9.49809 42.8739 9.32878 42.6289C10.2239 42.1011 11.1764 41.5855 12.1849 41.0835C12.2714 41.1823 12.3702 41.2852 12.4842 41.3922L12.6428 41.5418L12.7313 41.6869C12.7272 41.6821 12.7234 41.6771 12.7228 41.6762C12.7228 41.6762 12.7347 41.6928 12.7561 41.7281L12.7313 41.6869C12.8358 41.8168 14.1404 43.3163 18.2769 43.3443C16.6849 44.1932 15.2707 45.0818 14.0498 46.0043C11.9108 45.3825 10.8046 44.3837 10.3124 43.8018L9.58884 44.4766C9.54928 44.4397 9.51511 44.4053 9.49037 44.3802L9.46769 44.3572C9.45379 44.343 9.44484 44.3339 9.43394 44.3232L9.37722 44.2672L9.32987 44.2032C9.25155 44.0972 9.18637 44.0004 9.13935 43.9224ZM22.1086 40.6272C21.9141 40.829 21.7206 41.2366 21.5437 41.7654C22.4763 41.3559 23.453 40.958 24.4715 40.5724C24.1067 39.8891 22.9931 39.7103 22.1086 40.6272ZM138.388 38.9419C138.308 38.9768 138.204 38.9944 138.079 38.9944H137.691V38.4162H138.058C138.107 38.4162 138.158 38.42 138.213 38.4266C138.267 38.4338 138.315 38.4471 138.36 38.4659C138.403 38.4858 138.439 38.5128 138.467 38.5478C138.494 38.5827 138.508 38.6302 138.508 38.6897C138.508 38.8229 138.468 38.9069 138.388 38.9419ZM138.719 38.2245C138.571 38.1263 138.36 38.0775 138.084 38.0775H137.259V40.2755H137.691V39.3391H137.963L138.497 40.2755H138.953L138.368 39.3158C138.448 39.3089 138.522 39.2928 138.591 39.2686C138.661 39.244 138.722 39.2091 138.774 39.1634C138.826 39.1184 138.867 39.0593 138.897 38.9878C138.926 38.916 138.941 38.8295 138.941 38.7278C138.941 38.4902 138.867 38.3224 138.719 38.2245ZM136.993 40.2811C136.86 40.1433 136.756 39.9809 136.679 39.7926C136.602 39.6044 136.564 39.3992 136.564 39.176C136.564 38.9532 136.602 38.7486 136.679 38.5623C136.756 38.3759 136.86 38.2145 136.993 38.0791C137.125 37.9431 137.281 37.8371 137.461 37.7603C137.64 37.6835 137.833 37.6454 138.038 37.6454C138.241 37.6454 138.432 37.6835 138.611 37.7603C138.791 37.8371 138.947 37.9431 139.079 38.0791C139.212 38.2145 139.317 38.3759 139.395 38.5623C139.474 38.7486 139.513 38.9532 139.513 39.176C139.513 39.3992 139.474 39.6044 139.395 39.7926C139.317 39.9809 139.212 40.1433 139.079 40.2811C138.947 40.4184 138.791 40.5254 138.611 40.6022C138.432 40.6793 138.241 40.7174 138.038 40.7174C137.833 40.7174 137.64 40.6793 137.461 40.6022C137.281 40.5254 137.125 40.4184 136.993 40.2811ZM136.638 37.7555C136.454 37.9252 136.306 38.1298 136.197 38.3703C136.087 38.6107 136.032 38.8795 136.032 39.1757C136.032 39.4757 136.087 39.746 136.197 39.9862C136.306 40.227 136.454 40.4328 136.638 40.6034C136.823 40.7743 137.036 40.9053 137.278 40.9956C137.521 41.0866 137.774 41.1319 138.038 41.1319C138.303 41.1319 138.557 41.0866 138.799 40.9956C139.041 40.9053 139.254 40.7743 139.438 40.6034C139.623 40.4328 139.771 40.227 139.88 39.9862C139.989 39.746 140.045 39.4757 140.045 39.1757C140.045 38.8795 139.989 38.6107 139.88 38.3703C139.771 38.1298 139.623 37.9252 139.438 37.7555C139.254 37.5865 139.041 37.4559 138.799 37.3634C138.557 37.2711 138.303 37.2249 138.038 37.2249C137.774 37.2249 137.521 37.2711 137.278 37.3634C137.036 37.4559 136.823 37.5865 136.638 37.7555ZM45.5167 28.9682C45.2109 28.7695 45.1473 28.7282 46.1263 28.7256C47.8503 28.7207 50.6215 28.1733 54.5218 27.403C55.3697 27.2356 56.271 27.0576 57.2264 26.8723C60.3768 26.2614 56.6825 29.278 56.6825 29.278C48.5631 31.4397 46.3299 30.3997 46.3299 30.3997C46.5084 29.6124 45.8599 29.1912 45.5167 28.9682ZM45.1419 20.609C45.6037 26.2081 41.3684 25.2953 41.3684 25.2953C41.3684 25.2953 39.1559 23.0889 39.8327 23.07C42.3665 22.9995 43.8251 21.5561 44.5521 20.8367C44.9349 20.4579 45.1148 20.2799 45.1419 20.609Z" fill="url(#paint0_linear)"/>
<defs>
<linearGradient id="paint0_linear" x1="146.213" y1="18.3635" x2="0" y2="18.3635" gradientUnits="userSpaceOnUse">
<stop stop-color="#00F2FE"/>
<stop offset="1" stop-color="#4FACFE"/>
</linearGradient>
</defs>
</svg>
