<svg width="168" height="53" viewBox="0 0 168 53" fill="none" xmlns="http://www.w3.org/2000/svg">
<path d="M82.846 29.6154C81.8845 31.7308 80.5383 33.4615 78.8076 34.6154C76.8845 35.9615 74.3845 36.7308 71.8845 36.7308C68.6153 36.7308 65.5383 35.3846 63.423 33.2692C61.3076 31.1538 59.9614 28.0769 59.9614 24.8077C59.9614 21.5385 61.3076 18.4615 63.423 16.3462C65.5383 14.2308 68.6153 12.8846 71.8845 12.8846C75.1537 12.8846 78.2307 14.2308 80.346 16.3462C82.4614 18.4615 83.8076 21.1538 83.8076 24.4231C83.8076 25.3846 83.8076 26.3462 83.8076 27.3077H67.6537V22.5H78.6153C78.2307 21.5385 77.6537 20.5769 76.8845 20C75.5383 18.6538 73.8076 17.8846 71.6922 17.8846C69.7691 17.8846 67.846 18.6538 66.4999 20C65.1537 21.3462 64.3845 23.0769 64.3845 25.1923C64.3845 27.1154 65.1537 29.0385 66.4999 30.3846C67.846 31.7308 69.5768 32.5 71.6922 32.5C73.2307 32.5 74.7691 31.9231 75.923 31.1538C76.3076 30.7692 76.8845 30.3846 77.2691 30H82.846V29.6154Z" fill="white"/>
<path fill-rule="evenodd" clip-rule="evenodd" d="M89.2247 52.8462C88 52.8462 86.5303 52.3563 85.7955 51.8664L86.7753 50.3968C87.755 50.8866 88.4898 51.1316 89.4696 51.1316C90.4494 51.1316 90.9392 50.6417 90.9392 50.1518C90.9392 49.4416 90.1408 49.2357 89.2053 48.9945C87.8823 48.6533 86.2854 48.2415 86.2854 46.2328C86.2854 44.7632 87.5101 43.5385 89.4696 43.5385C90.6943 43.5385 91.674 43.7834 92.6538 44.2733L91.919 45.7429C91.1842 45.498 90.2044 45.253 89.4696 45.253C88.4898 45.253 88 45.7429 88 46.2328C88 46.943 88.7984 47.1489 89.7339 47.3901C91.0569 47.7313 92.6538 48.1431 92.6538 50.1518C92.6538 51.6215 91.4291 52.8462 89.2247 52.8462ZM93.6336 51.8664C94.3684 52.3563 95.838 52.8462 97.0627 52.8462C99.2672 52.8462 100.492 51.6215 100.492 50.1518C100.492 48.1431 98.8949 47.7313 97.572 47.3901C96.6365 47.1489 95.838 46.943 95.838 46.2328C95.838 45.7429 96.3279 45.253 97.3077 45.253C98.0425 45.253 99.0222 45.498 99.757 45.7429L100.492 44.2733C99.5121 43.7834 98.5323 43.5385 97.3077 43.5385C95.3481 43.5385 94.1234 44.7632 94.1234 46.2328C94.1234 48.2415 95.7204 48.6533 97.0433 48.9945C97.9788 49.2357 98.7773 49.4416 98.7773 50.1518C98.7773 50.6417 98.2874 51.1316 97.3077 51.1316C96.3279 51.1316 95.5931 50.8866 94.6133 50.3968L93.6336 51.8664ZM144.091 52.8462C141.397 52.8462 139.437 50.8866 139.437 48.1923C139.437 45.7429 141.397 43.7834 144.091 43.5385C146.785 43.5385 148.745 45.498 148.745 48.1923C148.745 50.8866 146.785 52.8462 144.091 52.8462ZM109.065 52.6012H107.105L110.044 43.7834H112.249L115.433 52.6012H113.474L112.984 50.8866H109.555L109.065 52.6012ZM112.739 49.6619L111.514 45.9879L110.289 49.6619H112.739ZM160.502 52.6012H166.87V50.8866H162.462V48.9271H166.381V47.4575H162.462V45.498H166.87V43.7834H160.502V52.6012ZM151.684 52.6012H149.97H149.48V43.7834H151.439L154.134 47.4575L156.828 43.7834H158.787V52.6012H157.073V46.4777L154.379 50.3968L151.684 46.4777V52.6012ZM141.397 48.1923C141.397 46.4777 142.376 45.253 144.091 45.253C145.561 45.253 146.785 46.4777 146.785 48.1923C146.785 49.9069 145.806 51.1316 144.091 51.1316C142.621 51.3765 141.397 50.1518 141.397 48.1923ZM130.864 52.6012H132.824V48.9271H136.253V52.6012H138.213V43.7834H136.253V47.2125H132.824V43.7834H130.864V52.6012ZM121.067 52.6012H119.107V45.498H116.168V43.7834H124.006V45.498H121.067V52.6012ZM78.2024 52.6012H84.5708V50.8866H79.917V48.9271H83.836V47.4575H79.917V45.498H84.3259V43.7834H77.9575V52.6012H78.2024ZM70.8542 52.6012H69.3846V44.0283H71.0992L75.0182 49.9069V44.0283H76.7328V52.8462H74.7732L70.8542 46.9676V52.6012ZM61.7915 52.6012H68.1599V50.8866H63.751V43.7834H61.7915V52.6012ZM60.5668 52.6012H54.1983V43.7834H56.1579V50.8866H60.5668V52.6012ZM46.3603 52.6012H52.7287V50.8866H48.0749V48.9271H52.2388V47.4575H48.3198V45.498H52.7287V43.7834H46.3603V52.6012ZM37.0526 52.6012H35.0931L32.1538 43.7834H34.1133L36.0728 49.9069L37.7874 43.7834H39.502L41.2166 49.9069L43.1761 43.7834H45.1356L42.4413 52.6012H40.4817L38.7672 46.7227L37.0526 52.6012Z" fill="white"/>
<path d="M32.0769 36.9231V30.7692V9.61539H36.8846V31.9231H40.5385C46.6923 31.9231 50.5385 28.8462 52.2692 24.8077C52.8462 23.2692 53.2308 21.5385 53.2308 19.8077C53.2308 18.0769 52.8462 16.3462 52.2692 14.8077C50.5385 10.7692 46.6923 7.69231 40.5385 7.69231H29L32.2692 2.88462H40.7308C49 2.88462 54.3846 7.30769 56.8846 12.8846C57.8462 15 58.2308 17.5 58.2308 19.8077C58.2308 22.1154 57.8462 24.4231 56.8846 26.7308C54.5769 32.3077 49.1923 36.7308 40.7308 36.7308H32.0769V36.9231Z" fill="white"/>
<rect x="86.1155" y="2.88462" width="4.80769" height="33.4615" fill="white"/>
<path d="M115.923 13.6538V25.3846C115.923 30.7692 113.038 34.2308 109.385 35.9615C108.038 36.5385 106.5 36.9231 104.962 36.9231C103.423 36.9231 101.885 36.5385 100.538 35.9615C96.8846 34.4231 94 30.9615 94 25.3846V13.6538H98.8077V25.3846C98.8077 28.6538 100.346 30.5769 102.462 31.3462C103.231 31.7308 104.192 31.9231 104.962 31.9231C105.923 31.9231 106.692 31.7308 107.462 31.3462C109.577 30.5769 111.115 28.4615 111.115 25.3846V13.6538H115.923Z" fill="white"/>
<path d="M117.269 36.5385L125.154 23.2692C126.5 24.4231 127.846 25.1923 129.384 25.5769L122.846 36.5385H117.269Z" fill="white"/>
<path d="M136.308 23.2692L144.962 36.5385H139.193L132.077 25.5769C133.423 25.1923 134.962 24.4231 136.308 23.2692Z" fill="white"/>
<path d="M124.769 13.6538L128.039 17.1154C129.385 18.6538 130.346 19.2308 130.731 19.0385C131.5 18.8462 132.462 17.8846 133.616 16.5385L149.192 0.192307L152.654 3.46154L137.077 19.8077C135.154 21.7308 133.616 23.2692 131.5 23.6538C129.192 24.0385 127.077 23.0769 124.385 20.1923L118.231 13.6538H124.769Z" fill="white"/>
<rect x="18.8076" y="9.61539" width="4.80769" height="11.5385" fill="white"/>
<path d="M23.6153 36.9231H18.8076V34.4231V28.0769H3.23071H0.923021L0.730713 25.5769V25.3846V24.8077L1.30764 24.0385L15.5384 3.07692H21.3076L7.65379 23.2692H27.8461V28.0769H23.6153V36.9231Z" fill="white"/>
<path d="M166.307 29.6154C165.346 31.7308 164 33.4615 162.269 34.6154C160.346 35.9615 157.846 36.7308 155.346 36.7308C152.077 36.7308 149 35.3846 146.884 33.2692C144.769 31.1538 143.423 28.0769 143.423 24.8077C143.423 21.5385 144.769 18.4615 146.884 16.3462C149 14.2308 152.077 12.8846 155.346 12.8846C158.615 12.8846 161.692 14.2308 163.807 16.3462C166.884 19.4231 167.461 23.0769 167.269 27.1154H151.115V22.3077H162.077C161.692 21.3462 161.115 20.3846 160.346 19.8077C159 18.4615 157.269 17.6923 155.154 17.6923C153.231 17.6923 151.307 18.4615 149.961 19.8077C148.615 21.1538 147.846 22.8846 147.846 25C147.846 26.9231 148.615 28.8462 149.961 30.1923C151.307 31.5385 153.038 32.3077 155.154 32.3077C156.692 32.3077 158.231 31.7308 159.384 30.9615C159.769 30.5769 160.346 30.1923 160.731 29.8077H166.307V29.6154Z" fill="white"/>
</svg>
