<svg width="220" height="67" viewBox="0 0 220 67" fill="none" xmlns="http://www.w3.org/2000/svg">
<path d="M7.90283 53.8301H2.98096V63H1.13525V52.3359H7.90283V53.8301Z" fill="url(#paint0_linear)"/>
<path d="M13.8639 55.0752H15.6363V63H13.8639V57.7119L10.7584 63H8.98594V55.0752H10.7584V60.3633L13.8639 55.0752Z" fill="url(#paint1_linear)"/>
<path d="M18.4626 61.5791C18.9558 61.0273 19.2854 60.5049 19.4514 60.0117C19.6223 59.5137 19.7248 58.8789 19.759 58.1074L19.8615 55.0752H25.362V61.5791H26.4606V65.3584H24.6882V63H19.6052V65.3584H17.8034L17.8107 61.5791H18.4626ZM20.55 61.5791H23.5896V56.606H21.59L21.5388 58.1221C21.4704 59.5772 21.1408 60.7295 20.55 61.5791Z" fill="url(#paint2_linear)"/>
<path d="M35.4393 59.1182C35.4393 60.3438 35.1609 61.3228 34.6043 62.0552C34.0477 62.7827 33.3006 63.1465 32.3631 63.1465C31.4939 63.1465 30.7981 62.8608 30.2757 62.2896V66.0469H28.4959V55.0752H30.1365L30.2098 55.8809C30.7322 55.2461 31.4427 54.9287 32.3411 54.9287C33.3079 54.9287 34.0647 55.29 34.6116 56.0127C35.1634 56.7305 35.4393 57.729 35.4393 59.0083V59.1182ZM33.6668 58.9644C33.6668 58.1733 33.5081 57.5459 33.1907 57.082C32.8782 56.6182 32.429 56.3862 31.8431 56.3862C31.1155 56.3862 30.5931 56.6865 30.2757 57.2871V60.8027C30.5979 61.418 31.1253 61.7256 31.8577 61.7256C32.4241 61.7256 32.866 61.4985 33.1834 61.0444C33.5057 60.5855 33.6668 59.8921 33.6668 58.9644Z" fill="url(#paint3_linear)"/>
<path d="M37.5185 58.9644C37.5185 58.188 37.6723 57.4897 37.9799 56.8696C38.2875 56.2446 38.7196 55.7661 39.2763 55.4341C39.8329 55.0972 40.4726 54.9287 41.1952 54.9287C42.2645 54.9287 43.1312 55.273 43.7953 55.9614C44.4643 56.6499 44.8256 57.563 44.8793 58.7007L44.8866 59.1182C44.8866 59.8994 44.7353 60.5977 44.4325 61.2129C44.1347 61.8281 43.705 62.3042 43.1435 62.6411C42.5868 62.978 41.9423 63.1465 41.2099 63.1465C40.0917 63.1465 39.1957 62.7754 38.5219 62.0332C37.8529 61.2861 37.5185 60.2925 37.5185 59.0522V58.9644ZM39.2982 59.1182C39.2982 59.9336 39.4667 60.5732 39.8036 61.0371C40.1405 61.4961 40.6093 61.7256 41.2099 61.7256C41.8104 61.7256 42.2768 61.4912 42.6088 61.0225C42.9457 60.5537 43.1142 59.8677 43.1142 58.9644C43.1142 58.1636 42.9408 57.5288 42.5941 57.0601C42.2523 56.5913 41.786 56.3569 41.1952 56.3569C40.6142 56.3569 40.1527 56.5889 39.8109 57.0527C39.4691 57.5117 39.2982 58.2002 39.2982 59.1182Z" fill="url(#paint4_linear)"/>
<path d="M51.9976 60.8101L54.3413 55.0752H56.5679V63H54.7881V57.7559L52.6055 63H51.397L49.207 57.7266V63H47.4272V55.0752H49.6685L51.9976 60.8101Z" fill="url(#paint5_linear)"/>
<path d="M64.2062 63C64.128 62.8486 64.0597 62.6021 64.0011 62.2603C63.4347 62.8511 62.7413 63.1465 61.921 63.1465C61.1251 63.1465 60.4757 62.9194 59.9728 62.4653C59.4698 62.0112 59.2184 61.4497 59.2184 60.7808C59.2184 59.936 59.5309 59.2891 60.1559 58.8398C60.7857 58.3857 61.6842 58.1587 62.8512 58.1587H63.9425V57.6387C63.9425 57.2285 63.8277 56.9014 63.5982 56.6572C63.3688 56.4082 63.0196 56.2837 62.5509 56.2837C62.1456 56.2837 61.8136 56.3862 61.5548 56.5913C61.296 56.7915 61.1666 57.0479 61.1666 57.3604H59.3868C59.3868 56.9258 59.5309 56.5205 59.8189 56.1445C60.107 55.7637 60.4977 55.4658 60.9908 55.251C61.4889 55.0361 62.0431 54.9287 62.6534 54.9287C63.5812 54.9287 64.3209 55.1631 64.8727 55.6318C65.4244 56.0957 65.7076 56.75 65.7223 57.5947V61.1689C65.7223 61.8818 65.8224 62.4507 66.0226 62.8755V63H64.2062ZM62.2506 61.7183C62.6021 61.7183 62.9317 61.6328 63.2394 61.4619C63.5519 61.291 63.7862 61.0615 63.9425 60.7734V59.2793H62.983C62.3238 59.2793 61.8282 59.394 61.4962 59.6235C61.1642 59.853 60.9981 60.1777 60.9981 60.5977C60.9981 60.9395 61.1105 61.2129 61.3351 61.418C61.5646 61.6182 61.8697 61.7183 62.2506 61.7183Z" fill="url(#paint6_linear)"/>
<path d="M71.7419 61.7256C72.1862 61.7256 72.5549 61.5962 72.8479 61.3374C73.1408 61.0786 73.2971 60.7588 73.3166 60.3779H74.9939C74.9743 60.8711 74.8205 61.3325 74.5324 61.7622C74.2443 62.187 73.8537 62.5239 73.3605 62.773C72.8674 63.022 72.3352 63.1465 71.7639 63.1465C70.6555 63.1465 69.7766 62.7876 69.1272 62.0698C68.4777 61.3521 68.153 60.3608 68.153 59.0962V58.9131C68.153 57.707 68.4753 56.7427 69.1198 56.02C69.7644 55.2925 70.6433 54.9287 71.7565 54.9287C72.6989 54.9287 73.4655 55.2046 74.0564 55.7564C74.6521 56.3032 74.9646 57.0234 74.9939 57.917H73.3166C73.2971 57.4629 73.1408 57.0894 72.8479 56.7964C72.5598 56.5034 72.1911 56.3569 71.7419 56.3569C71.1657 56.3569 70.7214 56.5669 70.4089 56.9868C70.0964 57.4019 69.9377 58.0342 69.9328 58.8838V59.1694C69.9328 60.0288 70.0866 60.6709 70.3942 61.0957C70.7067 61.5156 71.156 61.7256 71.7419 61.7256Z" fill="url(#paint7_linear)"/>
<path d="M80.4935 61.7256C80.9378 61.7256 81.3064 61.5962 81.5994 61.3374C81.8924 61.0786 82.0486 60.7588 82.0682 60.3779H83.7454C83.7259 60.8711 83.5721 61.3325 83.284 61.7622C82.9959 62.187 82.6053 62.5239 82.1121 62.773C81.6189 63.022 81.0867 63.1465 80.5154 63.1465C79.407 63.1465 78.5281 62.7876 77.8787 62.0698C77.2293 61.3521 76.9046 60.3608 76.9046 59.0962V58.9131C76.9046 57.707 77.2269 56.7427 77.8714 56.02C78.5159 55.2925 79.3948 54.9287 80.5081 54.9287C81.4505 54.9287 82.2171 55.2046 82.8079 55.7564C83.4036 56.3032 83.7161 57.0234 83.7454 57.917H82.0682C82.0486 57.4629 81.8924 57.0894 81.5994 56.7964C81.3113 56.5034 80.9427 56.3569 80.4935 56.3569C79.9173 56.3569 79.4729 56.5669 79.1604 56.9868C78.8479 57.4019 78.6893 58.0342 78.6844 58.8838V59.1694C78.6844 60.0288 78.8382 60.6709 79.1458 61.0957C79.4583 61.5156 79.9075 61.7256 80.4935 61.7256Z" fill="url(#paint8_linear)"/>
<path d="M90.7245 63C90.6464 62.8486 90.578 62.6021 90.5194 62.2603C89.953 62.8511 89.2597 63.1465 88.4394 63.1465C87.6435 63.1465 86.994 62.9194 86.4911 62.4653C85.9882 62.0112 85.7367 61.4497 85.7367 60.7808C85.7367 59.936 86.0492 59.2891 86.6742 58.8398C87.3041 58.3857 88.2025 58.1587 89.3695 58.1587H90.4608V57.6387C90.4608 57.2285 90.3461 56.9014 90.1166 56.6572C89.8871 56.4082 89.538 56.2837 89.0692 56.2837C88.664 56.2837 88.3319 56.3862 88.0731 56.5913C87.8144 56.7915 87.685 57.0479 87.685 57.3604H85.9052C85.9052 56.9258 86.0492 56.5205 86.3373 56.1445C86.6254 55.7637 87.016 55.4658 87.5092 55.251C88.0072 55.0361 88.5614 54.9287 89.1718 54.9287C90.0995 54.9287 90.8393 55.1631 91.391 55.6318C91.9428 56.0957 92.226 56.75 92.2406 57.5947V61.1689C92.2406 61.8818 92.3407 62.4507 92.5409 62.8755V63H90.7245ZM88.7689 61.7183C89.1205 61.7183 89.4501 61.6328 89.7577 61.4619C90.0702 61.291 90.3046 61.0615 90.4608 60.7734V59.2793H89.5014C88.8422 59.2793 88.3466 59.394 88.0145 59.6235C87.6825 59.853 87.5165 60.1777 87.5165 60.5977C87.5165 60.9395 87.6288 61.2129 87.8534 61.418C88.0829 61.6182 88.3881 61.7183 88.7689 61.7183Z" fill="url(#paint9_linear)"/>
<path d="M101.981 59.814H101.036V63H99.2563V59.814H98.3188L96.4951 63H94.3125L96.9419 58.8765L94.4517 55.0752H96.627L98.4214 58.188H99.2563V55.0752H101.036V58.188H101.878L103.68 55.0752H105.855L103.373 58.8545L106.017 63H103.805L101.981 59.814Z" fill="url(#paint10_linear)"/>
<path d="M114.732 63H112.952V59.7993H109.868V63H108.088V55.0752H109.868V58.3784H112.952V55.0752H114.732V63Z" fill="url(#paint11_linear)"/>
<path d="M119.447 57.5947H121.191C121.84 57.5947 122.406 57.707 122.89 57.9316C123.373 58.1563 123.739 58.4712 123.988 58.8765C124.242 59.2817 124.369 59.7529 124.369 60.29C124.369 61.1055 124.081 61.7598 123.505 62.2529C122.929 62.7461 122.162 62.9951 121.205 63H117.668V55.0752H119.447V57.5947ZM127.467 63H125.688V55.0752H127.467V63ZM119.447 59.023V61.5791H121.183C121.618 61.5791 121.96 61.4717 122.209 61.2568C122.463 61.0371 122.59 60.7271 122.59 60.3267C122.59 59.9263 122.465 59.6113 122.216 59.3818C121.972 59.1475 121.64 59.0278 121.22 59.023H119.447Z" fill="url(#paint12_linear)"/>
<path d="M133.992 63.1465C132.865 63.1465 131.949 62.7925 131.246 62.0845C130.548 61.3716 130.199 60.4243 130.199 59.2427V59.023C130.199 58.2319 130.35 57.5264 130.653 56.9063C130.96 56.2813 131.39 55.7954 131.942 55.4487C132.493 55.1021 133.109 54.9287 133.787 54.9287C134.867 54.9287 135.699 55.273 136.285 55.9614C136.876 56.6499 137.171 57.624 137.171 58.8838V59.6016H131.993C132.047 60.2559 132.264 60.7734 132.645 61.1543C133.031 61.5352 133.514 61.7256 134.095 61.7256C134.91 61.7256 135.575 61.396 136.087 60.7368L137.047 61.6523C136.729 62.126 136.304 62.4946 135.772 62.7583C135.245 63.0171 134.652 63.1465 133.992 63.1465ZM133.78 56.3569C133.292 56.3569 132.896 56.5278 132.594 56.8696C132.296 57.2114 132.105 57.6875 132.022 58.2979H135.413V58.166C135.374 57.5703 135.216 57.1211 134.937 56.8184C134.659 56.5107 134.273 56.3569 133.78 56.3569Z" fill="url(#paint13_linear)"/>
<path d="M147.826 55.5147C148.822 55.5147 149.621 55.8491 150.221 56.5181C150.822 57.1821 151.122 58.0855 151.122 59.228V59.3159C151.122 60.4585 150.795 61.3838 150.141 62.0918C149.491 62.7998 148.607 63.1538 147.489 63.1538C146.4 63.1538 145.521 62.7925 144.853 62.0698C144.184 61.3472 143.849 60.3608 143.849 59.1108V58.5981C143.849 56.8892 144.152 55.5366 144.757 54.5405C145.363 53.5444 146.266 52.9219 147.467 52.6729C148.141 52.5361 148.576 52.3921 148.771 52.2407C148.971 52.0845 149.071 51.8745 149.071 51.6108H150.507C150.507 52.104 150.426 52.5044 150.265 52.812C150.104 53.1196 149.857 53.3711 149.525 53.5664C149.193 53.7568 148.622 53.9375 147.812 54.1084C147.069 54.2647 146.503 54.543 146.112 54.9434C145.727 55.3438 145.468 55.898 145.336 56.606C146.044 55.8784 146.874 55.5147 147.826 55.5147ZM147.475 56.9429C146.898 56.9429 146.447 57.1382 146.12 57.5288C145.792 57.9146 145.629 58.5103 145.629 59.3159C145.629 60.0776 145.79 60.6709 146.112 61.0957C146.435 61.5205 146.894 61.7329 147.489 61.7329C148.08 61.7329 148.537 61.5205 148.859 61.0957C149.186 60.666 149.35 60.0215 149.35 59.1621C149.35 58.4785 149.186 57.939 148.859 57.5435C148.537 57.1431 148.075 56.9429 147.475 56.9429Z" fill="url(#paint14_linear)"/>
<path d="M158.152 63C158.074 62.8486 158.006 62.6021 157.947 62.2603C157.381 62.8511 156.688 63.1465 155.867 63.1465C155.071 63.1465 154.422 62.9194 153.919 62.4653C153.416 62.0112 153.165 61.4497 153.165 60.7808C153.165 59.936 153.477 59.2891 154.102 58.8398C154.732 58.3857 155.63 58.1587 156.797 58.1587H157.889V57.6387C157.889 57.2285 157.774 56.9014 157.545 56.6572C157.315 56.4082 156.966 56.2837 156.497 56.2837C156.092 56.2837 155.76 56.3862 155.501 56.5913C155.242 56.7915 155.113 57.0479 155.113 57.3604H153.333C153.333 56.9258 153.477 56.5205 153.765 56.1445C154.053 55.7637 154.444 55.4658 154.937 55.251C155.435 55.0361 155.989 54.9287 156.6 54.9287C157.527 54.9287 158.267 55.1631 158.819 55.6318C159.371 56.0957 159.654 56.75 159.669 57.5947V61.1689C159.669 61.8818 159.769 62.4507 159.969 62.8755V63H158.152ZM156.197 61.7183C156.548 61.7183 156.878 61.6328 157.186 61.4619C157.498 61.291 157.733 61.0615 157.889 60.7734V59.2793H156.929C156.27 59.2793 155.775 59.394 155.442 59.6235C155.11 59.853 154.944 60.1777 154.944 60.5977C154.944 60.9395 155.057 61.2129 155.281 61.418C155.511 61.6182 155.816 61.7183 156.197 61.7183Z" fill="url(#paint15_linear)"/>
<path d="M165.688 61.7256C166.133 61.7256 166.501 61.5962 166.794 61.3374C167.087 61.0786 167.243 60.7588 167.263 60.3779H168.94C168.921 60.8711 168.767 61.3325 168.479 61.7622C168.191 62.187 167.8 62.5239 167.307 62.773C166.814 63.022 166.281 63.1465 165.71 63.1465C164.602 63.1465 163.723 62.7876 163.073 62.0698C162.424 61.3521 162.099 60.3608 162.099 59.0962V58.9131C162.099 57.707 162.422 56.7427 163.066 56.02C163.711 55.2925 164.59 54.9287 165.703 54.9287C166.645 54.9287 167.412 55.2046 168.003 55.7564C168.598 56.3032 168.911 57.0234 168.94 57.917H167.263C167.243 57.4629 167.087 57.0894 166.794 56.7964C166.506 56.5034 166.137 56.3569 165.688 56.3569C165.112 56.3569 164.668 56.5669 164.355 56.9868C164.043 57.4019 163.884 58.0342 163.879 58.8838V59.1694C163.879 60.0288 164.033 60.6709 164.341 61.0957C164.653 61.5156 165.102 61.7256 165.688 61.7256Z" fill="url(#paint16_linear)"/>
<path d="M174.44 61.7256C174.884 61.7256 175.253 61.5962 175.546 61.3374C175.839 61.0786 175.995 60.7588 176.014 60.3779H177.692C177.672 60.8711 177.518 61.3325 177.23 61.7622C176.942 62.187 176.552 62.5239 176.058 62.773C175.565 63.022 175.033 63.1465 174.462 63.1465C173.353 63.1465 172.474 62.7876 171.825 62.0698C171.176 61.3521 170.851 60.3608 170.851 59.0962V58.9131C170.851 57.707 171.173 56.7427 171.818 56.02C172.462 55.2925 173.341 54.9287 174.454 54.9287C175.397 54.9287 176.163 55.2046 176.754 55.7564C177.35 56.3032 177.662 57.0234 177.692 57.917H176.014C175.995 57.4629 175.839 57.0894 175.546 56.7964C175.258 56.5034 174.889 56.3569 174.44 56.3569C173.864 56.3569 173.419 56.5669 173.107 56.9868C172.794 57.4019 172.636 58.0342 172.631 58.8838V59.1694C172.631 60.0288 172.784 60.6709 173.092 61.0957C173.405 61.5156 173.854 61.7256 174.44 61.7256Z" fill="url(#paint17_linear)"/>
<path d="M183.426 63.1465C182.298 63.1465 181.382 62.7925 180.679 62.0845C179.981 61.3716 179.632 60.4243 179.632 59.2427V59.023C179.632 58.2319 179.783 57.5264 180.086 56.9063C180.393 56.2813 180.823 55.7954 181.375 55.4487C181.927 55.1021 182.542 54.9287 183.221 54.9287C184.3 54.9287 185.132 55.273 185.718 55.9614C186.309 56.6499 186.604 57.624 186.604 58.8838V59.6016H181.426C181.48 60.2559 181.697 60.7734 182.078 61.1543C182.464 61.5352 182.947 61.7256 183.528 61.7256C184.344 61.7256 185.008 61.396 185.52 60.7368L186.48 61.6523C186.163 62.126 185.738 62.4946 185.205 62.7583C184.678 63.0171 184.085 63.1465 183.426 63.1465ZM183.213 56.3569C182.725 56.3569 182.329 56.5278 182.027 56.8696C181.729 57.2114 181.538 57.6875 181.455 58.2979H184.847V58.166C184.808 57.5703 184.649 57.1211 184.371 56.8184C184.092 56.5107 183.706 56.3569 183.213 56.3569Z" fill="url(#paint18_linear)"/>
<path d="M193.84 55.0752H195.612V63H193.84V57.7119L190.734 63H188.962V55.0752H190.734V60.3633L193.84 55.0752ZM194.675 52.0356C194.675 52.6509 194.46 53.1489 194.03 53.5298C193.601 53.9106 193.027 54.1011 192.309 54.1011C191.591 54.1011 191.018 53.9106 190.588 53.5298C190.158 53.1489 189.943 52.6509 189.943 52.0356H191.276C191.276 52.3579 191.367 52.6094 191.547 52.79C191.733 52.9658 191.987 53.0537 192.309 53.0537C192.631 53.0537 192.883 52.9658 193.063 52.79C193.244 52.6094 193.334 52.3579 193.334 52.0356H194.675Z" fill="url(#paint19_linear)"/>
<path d="M205.118 63H203.338V59.7993H200.255V63H198.475V55.0752H200.255V58.3784H203.338V55.0752H205.118V63Z" fill="url(#paint20_linear)"/>
<path d="M209.834 57.5947H211.577C212.227 57.5947 212.793 57.707 213.277 57.9316C213.76 58.1563 214.126 58.4712 214.375 58.8765C214.629 59.2817 214.756 59.7529 214.756 60.29C214.756 61.1055 214.468 61.7598 213.892 62.2529C213.316 62.7461 212.549 62.9951 211.592 63H208.054V55.0752H209.834V57.5947ZM217.854 63H216.074V55.0752H217.854V63ZM209.834 59.023V61.5791H211.57C212.005 61.5791 212.346 61.4717 212.595 61.2568C212.849 61.0371 212.976 60.7271 212.976 60.3267C212.976 59.9263 212.852 59.6113 212.603 59.3818C212.359 59.1475 212.027 59.0278 211.607 59.023H209.834Z" fill="url(#paint21_linear)"/>
<path fill-rule="evenodd" clip-rule="evenodd" d="M102.243 0.449028L102.115 16.0089L102.035 15.9753C100.938 15.5163 99.8389 15.0562 98.5582 14.6898C97.337 14.314 95.9348 14.1209 94.3414 14.1178L94.3179 14.1177C94.2282 14.1172 94.1454 14.1169 94.0599 14.1169C91.6246 14.1115 89.5607 14.3898 87.8694 15.1329C86.0905 15.7853 84.6794 16.7174 83.5524 18.0275C82.5189 19.2478 81.6734 20.7429 81.1068 22.5236C80.5443 24.2104 80.1626 26.1756 80.0629 28.3329C80.1532 30.4876 80.5267 32.4572 81.0817 34.144C81.6411 35.8304 82.4798 37.3336 83.508 38.553C84.6295 39.7765 86.0362 40.7162 87.8123 41.3762C89.5014 42.0362 91.5631 42.3195 93.9993 42.3245L94.0897 42.325C94.1515 42.3254 94.2138 42.3258 94.2799 42.3258C96.8108 42.3307 98.8702 41.9626 100.655 41.4045C102.436 40.7521 103.938 39.8178 105.062 38.6002C106.193 37.3848 107.041 35.8861 107.604 34.2011C108.171 32.5165 108.546 30.5491 108.551 28.3944C108.551 28.3944 108.552 27.9248 108.554 27.0834C108.556 26.3336 108.558 25.208 108.561 23.8027C108.564 22.4881 108.567 20.8947 108.571 19.1154L108.583 13.3092C108.588 11.3437 108.592 9.2965 108.597 7.24342L108.612 0.462946L102.243 0.449028ZM94.2875 39.0465C93.1597 39.0442 92.1302 38.9454 91.0993 38.6666C90.1654 38.3838 89.3214 37.8149 88.669 37.0678C88.0126 36.314 87.4518 35.3756 87.0818 34.0646C86.7078 32.7518 86.5238 31.2517 86.5278 29.3759L86.5323 27.4076C86.5363 25.5358 86.7267 23.9405 87.1065 22.6304C87.4819 21.4114 88.0471 20.2912 88.7071 19.5396C89.3627 18.7005 90.2094 18.1352 91.1447 17.8596C92.1769 17.4865 93.2068 17.3024 94.3347 17.3994C95.5505 17.3078 96.584 17.4963 97.5197 17.873C98.5506 18.2479 99.3915 18.8141 100.044 19.5639C100.701 20.4107 101.261 21.4415 101.631 22.7543C102.004 23.9733 102.188 25.5694 102.184 27.4412L102.18 29.4096C102.176 31.2858 101.984 32.7841 101.606 34.096C101.231 35.3132 100.666 36.3409 100.006 37.0925C99.3502 37.8374 98.507 38.3056 97.4744 38.6801C96.5495 38.9517 95.5285 39.0465 94.3333 39.0465H94.2875Z" fill="url(#paint22_linear)"/>
<path d="M62.7233 29.0427C62.7332 24.5449 64.1489 20.8933 66.9653 18.2744C69.7696 15.6672 73.8715 14.3678 79.1793 14.3678C79.2031 14.3678 79.2269 14.3678 79.2507 14.3683C79.6263 14.3687 80.0021 14.3692 80.4706 14.3705C80.8433 14.3714 81.3133 14.3728 81.6869 14.4657L81.6811 17.372C81.3071 17.2768 80.8374 17.1807 80.37 17.1798C79.8061 17.178 79.341 17.1771 78.9643 17.1767C77.7471 17.174 76.6188 17.2665 75.4959 17.5453C74.2765 17.9175 73.2438 18.4769 72.3082 19.1311C71.3707 19.8768 70.616 20.9072 70.0493 22.1235C69.4868 23.4354 69.1981 24.9314 69.194 26.81L69.1604 42.271L62.6951 42.2571L62.7233 29.0427Z" fill="url(#paint23_linear)"/>
<path d="M0.0278367 29.0962C0.0381633 24.5974 1.26343 21.0397 3.70812 18.4203C6.04327 15.8113 9.50041 14.5066 13.9745 14.5066H14.0261C16.5516 14.512 18.7085 14.7998 20.3949 15.5482C22.1738 16.2091 23.5759 17.152 24.6984 18.4657C25.8222 19.686 26.5643 21.2794 27.0326 23.0646C27.5911 24.8412 27.7743 26.9087 27.7703 29.1563L27.742 42.1817L21.366 42.1673L21.3984 27.4547C21.4024 25.5825 21.2197 23.9868 20.9386 22.7683C20.6629 21.5493 20.1951 20.5193 19.633 19.765C19.0727 19.0152 18.3233 18.5469 17.389 18.1667C16.4529 17.8825 15.5131 17.7904 14.2978 17.7873C13.174 17.785 12.1422 17.8726 11.1127 18.1536C10.173 18.4343 9.3262 18.9946 8.67069 19.7412C7.9182 20.4933 7.44722 21.4263 7.07098 22.7382C6.69339 23.9558 6.50392 25.5501 6.49943 27.4228L6.46755 42.1359L0 42.1215L0.0278367 29.0962Z" fill="url(#paint24_linear)"/>
<path fill-rule="evenodd" clip-rule="evenodd" d="M34.3532 18.5815C35.5736 17.3634 37.0749 16.3371 38.8587 15.4948C40.6255 14.7576 42.6724 14.3863 45.0865 14.3863H45.1377C45.2316 14.3867 45.3263 14.3872 45.4206 14.3872C47.9488 14.3925 50.0087 14.7728 51.6946 15.5226C53.3805 16.3725 54.7849 17.4052 55.9083 18.6282C57.0289 19.9406 57.8681 21.4415 58.4266 23.1328C58.9847 24.8174 59.3591 26.506 59.3547 28.3796C59.3506 30.2527 58.969 32.0347 58.4037 33.7216C57.9323 35.4039 57.0887 36.9048 55.9581 38.1207C54.8289 39.4303 53.4223 40.3629 51.6394 41.1068C49.9503 41.8571 47.8882 42.2248 45.36 42.2194C45.2657 42.2189 45.1714 42.2189 45.0771 42.2189C42.6409 42.2136 40.5792 41.8364 38.8026 41.0794C37.0224 40.3269 35.526 39.2903 34.4026 38.0744C33.2824 36.7553 32.3454 35.2562 31.7873 33.5694C31.3231 31.9746 30.9522 30.1912 30.862 28.3176C30.866 26.444 31.2454 24.7572 31.8107 23.0754C32.3755 21.3858 33.2245 19.8885 34.3532 18.5815ZM39.4658 36.9614C40.1181 37.7089 40.9618 38.1808 41.9033 38.5607C42.9314 38.839 43.9605 38.9374 45.0843 38.94C46.3015 38.9423 47.3359 38.8485 48.2716 38.5741C49.3042 38.2958 50.0531 37.7309 50.8056 36.9861C51.4629 36.2349 52.0269 35.2068 52.4058 33.9896C52.7852 32.6781 52.9733 31.1794 52.9773 29.3032L52.9814 27.3344C52.9854 25.463 52.804 23.9607 52.43 22.6479C52.056 21.4289 51.4975 20.3936 50.8429 19.6465C50.094 18.8967 49.3473 18.3305 48.3165 18.045C47.3813 17.7644 46.3482 17.6696 45.1301 17.6674C44.0063 17.6651 42.9768 17.7545 41.9477 18.0311C41.0044 18.4069 40.1585 18.8756 39.503 19.6223C38.7537 20.3667 38.2809 21.3993 37.9038 22.6165C37.528 23.9275 37.3353 25.4289 37.3309 27.3003L37.3268 29.269C37.3232 31.1453 37.5087 32.6449 37.8795 33.9582C38.2513 35.1763 38.7196 36.2071 39.4658 36.9614Z" fill="url(#paint25_linear)"/>
<path d="M206.143 14.7356C204.924 15.1082 203.797 15.5729 202.861 16.2275C201.922 16.8817 201.17 17.7226 200.604 18.6583C200.04 19.5024 199.757 20.6253 199.755 21.7491C199.751 23.1553 200.03 24.28 200.589 25.2161C201.059 26.1594 201.712 27.0021 202.555 27.6585C203.396 28.3185 204.333 28.8829 205.362 29.2596C206.458 29.7204 207.466 30.0894 208.47 30.4569L208.545 30.4844C209.357 30.8442 210.08 31.1192 210.798 31.3924L210.888 31.4268C211.636 31.7074 212.292 32.0832 212.947 32.4608C213.51 32.8371 213.974 33.3085 214.257 33.7768C214.629 34.3407 214.816 34.9055 214.815 35.5597C214.813 36.3077 214.623 36.9636 214.341 37.524C213.964 38.0861 213.498 38.5544 212.933 38.9306C212.37 39.3024 211.619 39.6719 210.87 39.8636C210.122 40.0486 209.276 40.1388 208.433 40.1366C206.651 40.2273 205.153 40.1294 203.744 39.7527C202.435 39.4672 201.124 38.808 199.719 37.8688L200.273 41.7147L200.313 41.7249C201.801 42.0973 203.285 42.469 204.77 42.6585C206.176 42.8507 207.678 42.9485 209.082 42.9512H209.172C210.364 42.949 211.645 42.8534 212.925 42.4883C214.238 42.2118 215.365 41.7475 216.396 41.0911C217.521 40.3454 218.365 39.5022 219.024 38.474C219.683 37.3525 219.967 36.1308 219.969 34.7228V34.6873C219.967 33.3902 219.69 32.2826 219.228 31.3509C218.667 30.4139 218.014 29.6605 217.171 29.0041C216.331 28.3464 215.396 27.7784 214.363 27.3128C213.691 27.0037 213.019 26.7352 212.321 26.4562L212.319 26.4557L212.317 26.4547C211.946 26.3068 211.569 26.1558 211.179 25.9942C210.819 25.8569 210.437 25.698 210.053 25.5386C209.642 25.3676 209.229 25.1956 208.84 25.0495C208.695 24.9771 208.554 24.9081 208.415 24.8404C207.837 24.5576 207.308 24.2993 206.781 23.9185C206.218 23.545 205.749 23.0745 205.377 22.6053C205.003 22.1379 204.816 21.5731 204.818 20.8201C204.819 20.2603 205.009 19.6972 205.384 19.2334C205.664 18.7638 206.135 18.3867 206.699 18.0172C207.167 17.7352 207.825 17.4555 208.483 17.3625C209.138 17.1753 209.888 17.0851 210.545 17.0864C211.76 17.1807 212.888 17.3724 213.73 17.5637C214.665 17.7514 215.417 18.0365 216.07 18.3148C216.723 18.599 217.381 18.978 217.848 19.2604C218.083 19.4486 218.317 19.6127 218.551 19.7767C218.784 19.9405 219.018 20.1044 219.252 20.2921C219.253 19.7282 219.254 19.1665 219.35 18.6044C219.351 18.1634 219.293 17.719 219.223 17.1839C219.205 17.0402 219.185 16.8901 219.166 16.7317C218.416 16.2612 217.763 15.8823 217.11 15.5096L217.03 15.4752C216.399 15.2051 215.769 14.9358 215.139 14.7549C214.391 14.5672 213.642 14.4689 212.797 14.3737C211.955 14.2789 211.021 14.2767 209.986 14.2749H209.956C208.654 14.2749 207.352 14.4576 206.143 14.7356Z" fill="url(#paint26_linear)"/>
<path d="M180.84 16.1799C181.774 15.5249 182.901 15.0606 184.12 14.6875C185.329 14.4096 186.631 14.2269 187.934 14.2269H187.964C188.993 14.2291 189.932 14.2314 190.775 14.3265C191.617 14.4213 192.368 14.5196 193.024 14.7068C193.768 14.8943 194.42 15.1753 195.068 15.4545L195.085 15.4616C195.74 15.8347 196.394 16.2136 197.145 16.6837L197.155 16.77C197.16 16.81 197.165 16.8495 197.17 16.8884L197.179 16.9647C197.254 17.5782 197.314 18.0695 197.231 18.5564L197.227 20.2436C196.995 20.0571 196.763 19.8944 196.532 19.7316C196.297 19.5669 196.062 19.402 195.827 19.2128C195.606 19.1017 195.384 18.9756 195.157 18.8462C194.806 18.6467 194.442 18.4394 194.042 18.2672C193.389 17.9889 192.642 17.7038 191.705 17.5161C190.768 17.3244 189.739 17.1331 188.522 17.0388C187.863 17.0375 187.11 17.1277 186.456 17.3154C185.705 17.4074 185.143 17.6876 184.581 17.9691C184.112 18.3391 183.644 18.7158 183.362 19.1854C182.986 19.6501 182.797 20.2127 182.796 20.773C182.795 21.5255 182.981 22.0903 183.354 22.5577C183.727 23.0273 184.196 23.4969 184.756 23.8709C185.18 24.2273 185.711 24.477 186.27 24.7396C186.45 24.8243 186.633 24.9105 186.817 25.0019C187.124 25.1184 187.433 25.251 187.749 25.3866C188.198 25.5798 188.662 25.7789 189.156 25.9461C189.781 26.2294 190.405 26.4799 191.051 26.7387L191.053 26.7395C191.471 26.9073 191.899 27.0787 192.34 27.2648C193.367 27.7304 194.306 28.2988 195.147 28.9565C195.989 29.6125 196.646 30.3663 197.113 31.3034C197.671 32.2431 197.952 33.3633 197.949 34.6747C197.946 36.0823 197.566 37.304 196.909 38.426C196.251 39.4537 195.404 40.2978 194.375 41.0435C193.337 41.6995 192.213 42.1646 190.902 42.4407C189.589 42.8147 188.277 42.9063 187.054 42.9036C185.558 42.9005 184.154 42.8035 182.655 42.6109C181.413 42.4419 180.097 42.1286 178.709 41.7982L178.156 41.6667L177.697 37.8203C179.103 38.7605 180.413 39.4196 181.722 39.7056C183.035 40.0814 184.629 40.1797 186.407 40.089C187.251 40.0908 188.095 40.0005 188.848 39.8165C189.596 39.6238 190.253 39.2548 190.91 38.8835C191.474 38.5068 191.941 38.038 192.317 37.4773C192.6 36.9165 192.79 36.2596 192.791 35.5112C192.793 34.8575 192.606 34.2936 192.232 33.7287C191.951 33.2605 191.486 32.7886 190.83 32.4123C190.269 32.0361 189.613 31.6598 188.866 31.3792C188.114 31.095 187.366 30.8108 186.522 30.4368C186.312 30.3601 186.098 30.2834 185.882 30.2059C185.038 29.9029 184.161 29.5878 183.34 29.2125C182.307 28.8349 181.374 28.2705 180.53 27.6109C179.689 26.9541 179.036 26.1109 178.474 25.1685C178.007 24.2319 177.729 23.1081 177.731 21.7006C177.734 20.5777 178.017 19.4548 178.583 18.6103C179.149 17.6746 179.9 16.8336 180.84 16.1799Z" fill="url(#paint27_linear)"/>
<path fill-rule="evenodd" clip-rule="evenodd" d="M154.502 15.5585C152.72 16.2132 151.316 17.1443 150.19 18.3602C149.154 19.5765 148.305 21.0756 147.739 22.762C147.172 24.4479 146.794 26.4167 146.697 28.5686C146.785 30.7233 147.154 32.6934 147.714 34.3798C148.273 36.0733 149.115 37.5716 150.146 38.7946C151.267 39.9206 152.667 40.8603 154.445 41.5208C156.131 42.1808 158.192 42.4636 160.63 42.4686L160.913 42.4695C161.634 42.4712 162.271 42.3852 162.904 42.2997L162.974 42.2903C163.725 42.1031 164.382 41.8207 165.04 41.3529C165.694 40.8886 166.259 40.3265 166.917 39.5749C167.481 38.8323 168.139 37.8944 168.795 36.7701L168.688 42.3025V42.4865L175.155 42.5005L175.156 42.3164C175.16 40.6751 175.163 39.2221 175.166 37.9566L175.166 37.9185C175.168 36.6688 175.171 35.6031 175.173 34.7205C175.175 33.8755 175.176 33.135 175.178 32.4903L175.178 32.422C175.179 31.7407 175.181 31.1682 175.182 30.6936L175.184 29.7388C175.184 29.4209 175.185 29.2021 175.185 29.098C175.185 28.8196 175.186 28.7249 175.186 28.6306C175.19 26.4782 174.817 24.508 174.262 22.819C173.701 21.1308 172.864 19.6281 171.741 18.4064C170.618 17.1856 169.123 16.2486 167.251 15.5859C165.564 15.0229 163.504 14.6431 160.973 14.6372L160.69 14.6368H160.622C158.214 14.6368 156.175 14.9143 154.502 15.5585ZM157.735 38.8112C156.796 38.5283 155.954 37.9595 155.299 37.2128C154.645 36.4585 154.083 35.5197 153.712 34.2092C153.34 32.8959 153.157 31.3967 153.161 29.52L153.165 27.5517C153.169 25.6799 153.359 24.1785 153.737 22.8675C154.113 21.6503 154.679 20.6176 155.337 19.8728C155.995 19.1261 156.839 18.5631 157.779 18.282C158.81 18.0059 159.843 17.9161 160.965 17.9184C162.184 17.9206 163.214 18.0154 164.15 18.296C165.182 18.6758 166.025 19.1481 166.676 19.8975C167.332 20.645 167.891 21.6799 168.264 22.8989C168.636 24.2117 168.819 25.7136 168.815 27.5858V27.6769C168.807 31.4304 168.054 34.3326 166.641 36.2978C165.234 38.3577 163.262 39.2885 160.92 39.191C159.796 39.1883 158.765 39.09 157.735 38.8112Z" fill="url(#paint28_linear)"/>
<path fill-rule="evenodd" clip-rule="evenodd" d="M115.06 10.7167C115.062 9.47208 115.065 8.20894 115.068 6.94486C115.071 5.31916 115.074 3.74187 115.078 2.21145L115.082 0.476865L121.549 0.490783L121.607 16.0515C122.641 15.5855 123.857 15.1167 125.172 14.7472C126.389 14.3764 127.704 14.1896 129.295 14.1932C129.341 14.1932 129.388 14.1933 129.435 14.1934C129.483 14.1935 129.53 14.1936 129.578 14.1936C132.014 14.1986 134.169 14.4868 135.858 15.2371C137.541 15.8966 138.941 16.835 140.064 18.15C141.187 19.3753 142.029 20.8731 142.587 22.6565C143.147 24.346 143.424 26.3125 143.509 28.4703C143.414 30.6245 143.129 32.5928 142.562 34.2774C141.997 35.9615 141.148 37.4598 140.019 38.6756C138.892 39.8941 137.487 40.8276 135.801 41.4808C134.109 42.1332 131.952 42.4071 129.517 42.4012H129.514C129.42 42.4012 129.326 42.4012 129.234 42.4008C126.798 42.3958 124.738 42.0183 122.957 41.4525C121.179 40.7925 119.683 39.8524 118.559 38.6294C117.345 37.4081 116.506 35.9063 115.945 34.2199C115.386 32.5322 115.111 30.563 115.021 28.4088C115.021 28.4088 115.023 27.9383 115.024 27.0978C115.025 26.5559 115.027 25.8183 115.029 24.9209L115.033 23.0624C115.035 21.9088 115.038 20.5811 115.041 19.1288L115.041 19.0667C115.045 17.2129 115.049 15.358 115.054 13.3226C115.056 12.4674 115.058 11.5967 115.06 10.7167ZM126.057 38.7425C127.086 39.0209 128.121 39.1201 129.241 39.1228H129.276C130.392 39.1228 131.503 39.0276 132.428 38.756C133.371 38.4771 134.214 37.9128 134.961 37.1684C135.622 36.4168 136.184 35.4807 136.562 34.1714C136.941 32.86 137.132 31.3617 137.136 29.485L137.141 27.5171C137.145 25.6458 136.959 24.0487 136.587 22.7377C136.214 21.5169 135.656 20.394 135 19.6393C134.256 18.7979 133.414 18.2291 132.473 17.9485C131.539 17.5718 130.416 17.3832 129.288 17.4757C128.168 17.3787 127.133 17.5619 126.102 17.935C125.165 18.3058 124.321 18.8684 123.661 19.6146C122.91 20.4587 122.439 21.4873 122.063 22.7988C121.684 24.016 121.494 25.6112 121.49 27.4834L121.487 29.4513C121.482 31.3276 121.665 32.8272 122.038 34.1409C122.409 35.3594 122.875 36.3894 123.622 37.1441C124.279 37.8912 125.122 38.3631 126.057 38.7425Z" fill="url(#paint29_linear)"/>
<defs>
<linearGradient id="paint0_linear" x1="219.969" y1="10.2388" x2="0" y2="10.2388" gradientUnits="userSpaceOnUse">
<stop stop-color="#00F2FE"/>
<stop offset="1" stop-color="#4FACFE"/>
</linearGradient>
<linearGradient id="paint1_linear" x1="219.969" y1="10.2388" x2="0" y2="10.2388" gradientUnits="userSpaceOnUse">
<stop stop-color="#00F2FE"/>
<stop offset="1" stop-color="#4FACFE"/>
</linearGradient>
<linearGradient id="paint2_linear" x1="219.969" y1="10.2388" x2="0" y2="10.2388" gradientUnits="userSpaceOnUse">
<stop stop-color="#00F2FE"/>
<stop offset="1" stop-color="#4FACFE"/>
</linearGradient>
<linearGradient id="paint3_linear" x1="219.969" y1="10.2388" x2="0" y2="10.2388" gradientUnits="userSpaceOnUse">
<stop stop-color="#00F2FE"/>
<stop offset="1" stop-color="#4FACFE"/>
</linearGradient>
<linearGradient id="paint4_linear" x1="219.969" y1="10.2388" x2="0" y2="10.2388" gradientUnits="userSpaceOnUse">
<stop stop-color="#00F2FE"/>
<stop offset="1" stop-color="#4FACFE"/>
</linearGradient>
<linearGradient id="paint5_linear" x1="219.969" y1="10.2388" x2="0" y2="10.2388" gradientUnits="userSpaceOnUse">
<stop stop-color="#00F2FE"/>
<stop offset="1" stop-color="#4FACFE"/>
</linearGradient>
<linearGradient id="paint6_linear" x1="219.969" y1="10.2388" x2="0" y2="10.2388" gradientUnits="userSpaceOnUse">
<stop stop-color="#00F2FE"/>
<stop offset="1" stop-color="#4FACFE"/>
</linearGradient>
<linearGradient id="paint7_linear" x1="219.969" y1="10.2388" x2="0" y2="10.2388" gradientUnits="userSpaceOnUse">
<stop stop-color="#00F2FE"/>
<stop offset="1" stop-color="#4FACFE"/>
</linearGradient>
<linearGradient id="paint8_linear" x1="219.969" y1="10.2388" x2="0" y2="10.2388" gradientUnits="userSpaceOnUse">
<stop stop-color="#00F2FE"/>
<stop offset="1" stop-color="#4FACFE"/>
</linearGradient>
<linearGradient id="paint9_linear" x1="219.969" y1="10.2388" x2="0" y2="10.2388" gradientUnits="userSpaceOnUse">
<stop stop-color="#00F2FE"/>
<stop offset="1" stop-color="#4FACFE"/>
</linearGradient>
<linearGradient id="paint10_linear" x1="219.969" y1="10.2388" x2="0" y2="10.2388" gradientUnits="userSpaceOnUse">
<stop stop-color="#00F2FE"/>
<stop offset="1" stop-color="#4FACFE"/>
</linearGradient>
<linearGradient id="paint11_linear" x1="219.969" y1="10.2388" x2="0" y2="10.2388" gradientUnits="userSpaceOnUse">
<stop stop-color="#00F2FE"/>
<stop offset="1" stop-color="#4FACFE"/>
</linearGradient>
<linearGradient id="paint12_linear" x1="219.969" y1="10.2388" x2="0" y2="10.2388" gradientUnits="userSpaceOnUse">
<stop stop-color="#00F2FE"/>
<stop offset="1" stop-color="#4FACFE"/>
</linearGradient>
<linearGradient id="paint13_linear" x1="219.969" y1="10.2388" x2="0" y2="10.2388" gradientUnits="userSpaceOnUse">
<stop stop-color="#00F2FE"/>
<stop offset="1" stop-color="#4FACFE"/>
</linearGradient>
<linearGradient id="paint14_linear" x1="219.969" y1="10.2388" x2="0" y2="10.2388" gradientUnits="userSpaceOnUse">
<stop stop-color="#00F2FE"/>
<stop offset="1" stop-color="#4FACFE"/>
</linearGradient>
<linearGradient id="paint15_linear" x1="219.969" y1="10.2388" x2="0" y2="10.2388" gradientUnits="userSpaceOnUse">
<stop stop-color="#00F2FE"/>
<stop offset="1" stop-color="#4FACFE"/>
</linearGradient>
<linearGradient id="paint16_linear" x1="219.969" y1="10.2388" x2="0" y2="10.2388" gradientUnits="userSpaceOnUse">
<stop stop-color="#00F2FE"/>
<stop offset="1" stop-color="#4FACFE"/>
</linearGradient>
<linearGradient id="paint17_linear" x1="219.969" y1="10.2388" x2="0" y2="10.2388" gradientUnits="userSpaceOnUse">
<stop stop-color="#00F2FE"/>
<stop offset="1" stop-color="#4FACFE"/>
</linearGradient>
<linearGradient id="paint18_linear" x1="219.969" y1="10.2388" x2="0" y2="10.2388" gradientUnits="userSpaceOnUse">
<stop stop-color="#00F2FE"/>
<stop offset="1" stop-color="#4FACFE"/>
</linearGradient>
<linearGradient id="paint19_linear" x1="219.969" y1="10.2388" x2="0" y2="10.2388" gradientUnits="userSpaceOnUse">
<stop stop-color="#00F2FE"/>
<stop offset="1" stop-color="#4FACFE"/>
</linearGradient>
<linearGradient id="paint20_linear" x1="219.969" y1="10.2388" x2="0" y2="10.2388" gradientUnits="userSpaceOnUse">
<stop stop-color="#00F2FE"/>
<stop offset="1" stop-color="#4FACFE"/>
</linearGradient>
<linearGradient id="paint21_linear" x1="219.969" y1="10.2388" x2="0" y2="10.2388" gradientUnits="userSpaceOnUse">
<stop stop-color="#00F2FE"/>
<stop offset="1" stop-color="#4FACFE"/>
</linearGradient>
<linearGradient id="paint22_linear" x1="219.969" y1="10.2388" x2="0" y2="10.2388" gradientUnits="userSpaceOnUse">
<stop stop-color="#00F2FE"/>
<stop offset="1" stop-color="#4FACFE"/>
</linearGradient>
<linearGradient id="paint23_linear" x1="219.969" y1="10.2388" x2="0" y2="10.2388" gradientUnits="userSpaceOnUse">
<stop stop-color="#00F2FE"/>
<stop offset="1" stop-color="#4FACFE"/>
</linearGradient>
<linearGradient id="paint24_linear" x1="219.969" y1="10.2388" x2="0" y2="10.2388" gradientUnits="userSpaceOnUse">
<stop stop-color="#00F2FE"/>
<stop offset="1" stop-color="#4FACFE"/>
</linearGradient>
<linearGradient id="paint25_linear" x1="219.969" y1="10.2388" x2="0" y2="10.2388" gradientUnits="userSpaceOnUse">
<stop stop-color="#00F2FE"/>
<stop offset="1" stop-color="#4FACFE"/>
</linearGradient>
<linearGradient id="paint26_linear" x1="219.969" y1="10.2388" x2="0" y2="10.2388" gradientUnits="userSpaceOnUse">
<stop stop-color="#00F2FE"/>
<stop offset="1" stop-color="#4FACFE"/>
</linearGradient>
<linearGradient id="paint27_linear" x1="219.969" y1="10.2388" x2="0" y2="10.2388" gradientUnits="userSpaceOnUse">
<stop stop-color="#00F2FE"/>
<stop offset="1" stop-color="#4FACFE"/>
</linearGradient>
<linearGradient id="paint28_linear" x1="219.969" y1="10.2388" x2="0" y2="10.2388" gradientUnits="userSpaceOnUse">
<stop stop-color="#00F2FE"/>
<stop offset="1" stop-color="#4FACFE"/>
</linearGradient>
<linearGradient id="paint29_linear" x1="219.969" y1="10.2388" x2="0" y2="10.2388" gradientUnits="userSpaceOnUse">
<stop stop-color="#00F2FE"/>
<stop offset="1" stop-color="#4FACFE"/>
</linearGradient>
</defs>
</svg>
