<?xml version="1.0" encoding="UTF-8"?><!DOCTYPE svg PUBLIC "-//W3C//DTD SVG 1.1//EN" "http://www.w3.org/Graphics/SVG/1.1/DTD/svg11.dtd"><svg xmlns="http://www.w3.org/2000/svg" xmlns:xlink="http://www.w3.org/1999/xlink"><symbol id="icon-check" viewBox="0 0 14 12">
<path d="M11.6124 0.0216696C11.9462 -0.040931 12.2488 0.0321019 12.5201 0.240771C12.7913 0.449439 12.9583 0.725921 13.0209 1.07022C13.0835 1.41453 13.0104 1.73274 12.8018 2.02488L6.32263 11.4775C6.11396 11.7488 5.84791 11.9157 5.52448 11.9783C5.20104 12.0409 4.90369 11.9679 4.63242 11.7592C4.46549 11.634 4.02729 11.1906 3.31782 10.429C2.60834 9.66733 1.94061 8.93178 1.31461 8.22231L0.344302 7.15811C0.114766 6.9077 0 6.60514 0 6.2504C0 5.89566 0.125199 5.5931 0.375602 5.3427C0.626004 5.09229 0.918136 4.97231 1.25201 4.98274C1.58588 4.99318 1.86758 5.13403 2.09711 5.4053L5.19583 8.75441L10.8299 0.522472C11.0385 0.251203 11.2994 0.0842702 11.6124 0.0216696Z"/>
</symbol><symbol id="icon-drops" viewBox="0 0 25 25">
<path fill-rule="evenodd" clip-rule="evenodd" d="M16.7119 2.46124C17.0979 2.09576 17.7019 2.09576 18.0874 2.46124C18.7339 3.0733 24.3999 8.54718 24.3999 12.1873C24.3999 15.7532 21.7629 18.6878 18.2935 19.1229C16.6675 22.2142 13.4353 24.1873 9.8999 24.1873C4.66138 24.1873 0.399902 19.9258 0.399902 14.6873C0.399902 9.73175 8.28198 1.42365 9.18042 0.492737C9.55688 0.102356 10.2419 0.102844 10.6189 0.492249C10.7029 0.579163 12.4729 2.41876 14.4119 4.88116C15.6274 3.49225 16.6594 2.5108 16.7119 2.46124ZM2.3999 14.6873C2.3999 18.8228 5.7644 22.1873 9.8999 22.1873C12.8469 22.1873 15.5283 20.4527 16.7329 17.7684C17.177 16.8018 17.3999 15.7684 17.3999 14.6873C17.3999 13.5428 16.7363 11.2928 13.575 7.07233C12.1738 5.20636 10.7314 3.56671 9.89746 2.65167C7.28442 5.50519 2.3999 11.4966 2.3999 14.6873ZM19.1614 16.8062L19.1615 16.806C19.1651 16.7872 19.1688 16.7684 19.1729 16.7498C19.1793 16.7205 19.1853 16.6908 19.1912 16.6611L19.1913 16.6609L19.2 16.6182C19.2605 16.3272 19.3088 16.0333 19.3413 15.7347C19.3432 15.7178 19.3446 15.7007 19.3459 15.6836L19.3459 15.6835L19.3459 15.6834C19.3471 15.6681 19.3482 15.6528 19.3499 15.6378C19.3809 15.3243 19.3999 15.0079 19.3999 14.6873C19.3999 14.5572 19.3943 14.4249 19.3845 14.2894C19.3823 14.2618 19.379 14.2336 19.3757 14.2056L19.3757 14.2054C19.3737 14.1879 19.3716 14.1706 19.3699 14.1534L19.3696 14.1506C19.3607 14.0595 19.3517 13.9679 19.3379 13.8743C19.3323 13.8354 19.3249 13.7956 19.3176 13.7558L19.3083 13.7047L19.3062 13.6922L19.3062 13.692C19.292 13.6093 19.2779 13.527 19.2605 13.4422C19.252 13.4021 19.2421 13.3611 19.2322 13.3201L19.2322 13.32C19.2268 13.2977 19.2215 13.2754 19.2163 13.2532L19.2093 13.2237C19.1912 13.1472 19.1731 13.0708 19.1523 12.9927C19.1415 12.9524 19.1294 12.9114 19.1173 12.8702C19.1094 12.8436 19.1016 12.817 19.094 12.7903L19.0799 12.7431L19.0799 12.743C19.0586 12.6711 19.0372 12.5992 19.0134 12.5257C18.9964 12.4736 18.978 12.4206 18.9594 12.3674L18.9399 12.3113C18.9089 12.2217 18.8774 12.1321 18.843 12.0413C18.8149 11.9673 18.7849 11.8917 18.7549 11.8167C18.718 11.7247 18.6804 11.6317 18.6404 11.5377C18.6079 11.4608 18.5735 11.3834 18.5383 11.3047C18.4958 11.2098 18.4524 11.1138 18.407 11.0167C18.3694 10.9368 18.3303 10.8558 18.2903 10.7742C18.2424 10.6763 18.1929 10.5767 18.1414 10.4769C18.0989 10.3939 18.0554 10.3099 18.011 10.2252C17.9651 10.1386 17.9172 10.0507 17.8688 9.96205L17.845 9.91827L17.8292 9.88983C17.7868 9.81322 17.744 9.73603 17.7 9.65826C17.6404 9.55328 17.5779 9.44635 17.5149 9.33917L17.4889 9.295C17.4457 9.22138 17.4024 9.14777 17.3574 9.0733C17.3046 8.98538 17.2493 8.89637 17.1939 8.807L17.1938 8.8068L17.1528 8.74078L17.15 8.73622C17.0951 8.64719 17.0405 8.55883 16.9829 8.46881C16.9104 8.3548 16.8345 8.23834 16.7583 8.12238L16.7462 8.10381L16.746 8.10354C16.6899 8.0174 16.6342 7.93191 16.5759 7.8443C16.5088 7.7442 16.4388 7.64181 16.369 7.53967L16.3318 7.48517L16.2711 7.39617L16.2709 7.39594C16.2267 7.33096 16.1824 7.26594 16.1365 7.19977C16.0599 7.08974 15.9795 6.97733 15.8995 6.86541L15.8733 6.82867L15.8293 6.76642L15.8292 6.7664C15.775 6.68965 15.721 6.61327 15.6643 6.53522C15.6584 6.52667 15.6528 6.51886 15.6465 6.51031C16.313 5.73077 16.949 5.05768 17.4043 4.59186C19.573 6.79327 22.3999 10.2952 22.3999 12.1873C22.3999 14.3382 21.0569 16.1697 19.1475 16.8738C19.1527 16.8515 19.157 16.8288 19.1614 16.8062ZM12.9424 13.8943C12.552 13.5042 12.552 12.8707 12.9424 12.4803C13.3335 12.0897 13.9663 12.0897 14.3564 12.4803C15.0173 13.1407 15.3813 14.0198 15.3813 14.9547C15.3813 15.8897 15.0173 16.7689 14.3564 17.4297C14.1609 17.6253 13.9048 17.7227 13.6489 17.7227C13.3928 17.7227 13.1375 17.6253 12.9419 17.4297C12.5515 17.0399 12.5515 16.4063 12.9419 16.0157C13.2253 15.7327 13.3813 15.3558 13.3813 14.9547C13.3813 14.5543 13.2253 14.1773 12.9424 13.8943Z"/>
</symbol><symbol id="icon-o2" viewBox="0 0 22 25">
<path fill-rule="evenodd" clip-rule="evenodd" d="M9.31727 1.59843C9.31727 2.14267 8.87608 2.58386 8.33184 2.58386C7.78761 2.58386 7.34642 2.14267 7.34642 1.59843C7.34642 1.0542 7.78761 0.613007 8.33184 0.613007C8.87608 0.613007 9.31727 1.0542 9.31727 1.59843ZM2.62755 7.06103C4.07871 7.06103 5.2551 5.88464 5.2551 4.43348C5.2551 2.98233 4.07871 1.80593 2.62755 1.80593C1.17639 1.80593 0 2.98233 0 4.43348C0 5.88464 1.17639 7.06103 2.62755 7.06103ZM2.18924 14.8512C2.18924 9.46787 6.56771 5.09018 11.9503 5.09018C17.332 5.09018 21.7121 9.46865 21.7121 14.8512C21.7121 20.233 17.332 24.613 11.9503 24.613C6.56771 24.613 2.18924 20.2338 2.18924 14.8512ZM3.94094 14.8489C3.94094 19.267 7.53371 22.8598 11.9503 22.8598C16.3676 22.8598 19.9604 19.267 19.9604 14.8489C19.9604 10.4339 16.3676 6.84032 11.9503 6.84032C7.53371 6.84032 3.94094 10.4331 3.94094 14.8489ZM6.28172 11.7496C6.96561 11.0657 7.9184 10.7238 9.14008 10.7238C10.3921 10.7238 11.3573 11.0587 12.0342 11.7309C12.7119 12.4024 13.0507 13.3443 13.0507 14.5559C13.0507 15.4364 12.9023 16.156 12.607 16.7203C12.3101 17.2798 11.8834 17.7189 11.3239 18.0329C10.7643 18.3461 10.0672 18.5023 9.23256 18.5023C8.38391 18.5023 7.68137 18.3663 7.1257 18.0974C6.56926 17.8269 6.11852 17.4003 5.77346 16.8135C5.42763 16.2291 5.2551 15.497 5.2551 14.6181C5.2551 13.3886 5.59705 12.4343 6.28172 11.7496ZM9.15562 16.763C9.65456 16.763 10.0408 16.6006 10.3151 16.2757C10.5887 15.9509 10.7262 15.3665 10.7278 14.5256C10.7278 13.8168 10.584 13.2992 10.2988 12.9728C10.012 12.6464 9.62425 12.4824 9.1362 12.4824C8.6668 12.4824 8.29066 12.6495 8.00699 12.9814C7.72256 13.3132 7.58034 13.8627 7.58034 14.6282C7.58034 15.3874 7.721 15.9322 8.00389 16.2648C8.28599 16.5975 8.66913 16.763 9.15562 16.763ZM15.6797 16.9497C15.6528 16.9722 15.6298 16.9915 15.6106 17.007C15.5752 17.0357 15.5375 17.0947 15.4976 17.1571C15.4319 17.2599 15.3603 17.3718 15.2837 17.3723H17.0818V18.2481H13.2924C13.3102 18.2481 13.3418 18.1446 13.3871 17.9961C13.4622 17.7498 13.575 17.3799 13.7253 17.1539C13.9662 16.7949 14.4177 16.4319 15.0814 15.9384C15.4871 15.6377 15.7459 15.41 15.8601 15.2538C15.9728 15.0983 16.0295 14.9491 16.0295 14.8092C16.0295 14.6577 15.9744 14.5287 15.8617 14.4207C15.749 14.3126 15.6083 14.2598 15.4381 14.2598C15.2609 14.2598 15.1172 14.315 15.0052 14.4253C14.8926 14.5372 14.8172 14.7339 14.7791 15.0144L13.3934 14.9009C13.4478 14.5108 13.5473 14.2069 13.6919 13.9893C13.8349 13.7702 14.0408 13.6023 14.3035 13.4873C14.5685 13.37 14.9322 13.3124 15.3993 13.3124C15.8865 13.3124 16.2642 13.3692 16.5362 13.4811C16.8051 13.5899 17.0173 13.7624 17.1735 13.9932C17.3282 14.2225 17.4059 14.4844 17.4059 14.7696C17.4059 15.0719 17.3165 15.3696 17.1401 15.6462C16.9621 15.9213 16.6388 16.24 16.1702 16.571C15.9475 16.7251 15.7844 16.8619 15.6797 16.9497Z"/>
</symbol><symbol id="icon-shield" viewBox="0 0 21 24">
<path fill-rule="evenodd" clip-rule="evenodd" d="M20.1406 6.17954L20.1402 6.15913V6.15905C20.128 5.51867 20.1165 4.91321 20.1165 4.32727C20.1165 3.86333 19.7405 3.48721 19.2765 3.48721C15.6838 3.48721 12.9485 2.45472 10.6684 0.237863C10.3423 -0.0793436 9.82322 -0.0792316 9.49717 0.237863C7.21736 2.45472 4.48246 3.48721 0.890034 3.48721C0.426098 3.48721 0.0499752 3.86333 0.0499752 4.32727C0.0499752 4.91957 0.0383263 5.53192 0.0258935 6.17999L0.0258931 6.18001C-0.089251 12.2101 -0.246946 20.4685 9.80765 23.9536C9.89681 23.9845 9.98978 24 10.0827 24C10.1757 24 10.2688 23.9845 10.3578 23.9536C20.4132 20.4684 20.2558 12.2097 20.1406 6.17954ZM10.0829 22.2685C1.45971 19.1359 1.59008 12.2738 1.70579 6.21203C1.71273 5.84823 1.71945 5.49563 1.72416 5.14997C5.08887 5.00794 7.77953 3.98833 10.0829 1.98183C12.3864 3.98833 15.0775 5.00805 18.4425 5.14997C18.4472 5.49551 18.4539 5.84789 18.4608 6.21147C18.5764 12.2734 18.7067 19.1358 10.0829 22.2685ZM11.1429 13.2735C11.4993 13.6762 12.0422 13.8776 12.7714 13.8776C13.5007 13.8776 14.0435 13.6762 14.4 13.2735C14.7565 12.8707 14.951 12.3429 14.9837 11.6898C14.9909 11.4939 14.9958 11.3173 14.9982 11.1601L15 10.9388C15 10.8501 14.999 10.7525 14.997 10.6459L14.9837 10.1714C14.9565 9.52925 14.7605 9.0068 14.3959 8.60408C14.0313 8.20136 13.4898 8 12.7714 8C12.0531 8 11.5116 8.20136 11.1469 8.60408C10.7823 9.0068 10.5864 9.52925 10.5592 10.1714C10.5554 10.2781 10.5529 10.4354 10.5518 10.6434L10.5513 11.1386C10.5519 11.2948 10.5531 11.4251 10.555 11.5296L10.5592 11.6898C10.5918 12.3429 10.7864 12.8707 11.1429 13.2735ZM7.97959 13.7959C7.92517 13.7959 7.87891 13.7769 7.84082 13.7388C7.80272 13.7007 7.78367 13.6544 7.78367 13.6V12.5551H5.19592C5.1415 12.5551 5.09524 12.5361 5.05714 12.498C5.01905 12.4599 5 12.4136 5 12.3592V11.7959C5 11.7263 5.01916 11.6601 5.05747 11.5974L7.49796 8.22041C7.52517 8.17687 7.56599 8.14286 7.62041 8.11837C7.67483 8.09388 7.73469 8.08163 7.8 8.08163H8.69796C8.75782 8.08163 8.80544 8.09932 8.84082 8.13469C8.87619 8.17007 8.89388 8.21769 8.89388 8.27755V11.5837H9.62857C9.68844 11.5837 9.73605 11.6014 9.77143 11.6367C9.8068 11.6721 9.82449 11.7197 9.82449 11.7796V12.3592C9.82449 12.4136 9.8068 12.4599 9.77143 12.498C9.73605 12.5361 9.68844 12.5551 9.62857 12.5551H8.89388V13.6C8.89388 13.6544 8.87619 13.7007 8.84082 13.7388C8.80544 13.7769 8.75782 13.7959 8.69796 13.7959H7.97959ZM6.15102 11.6163H7.80816V9.27347L6.15102 11.6163ZM12.7714 12.9224C12.434 12.9224 12.181 12.8122 12.0122 12.5918C11.8589 12.3915 11.7707 12.1135 11.7478 11.758L11.7429 11.649C11.7398 11.5613 11.7376 11.4476 11.7363 11.3078L11.7351 10.7181C11.7359 10.527 11.7379 10.3758 11.7411 10.2646L11.7429 10.2122C11.7537 9.81496 11.8435 9.50476 12.0122 9.28163C12.181 9.0585 12.434 8.94422 12.7714 8.93878C13.1088 8.94422 13.3619 9.0585 13.5306 9.28163C13.6993 9.50476 13.7891 9.81496 13.8 10.2122L13.8045 10.3891C13.8061 10.481 13.8072 10.5907 13.8078 10.7181V11.1276C13.8068 11.3524 13.8042 11.5262 13.8 11.649C13.7891 12.0571 13.6993 12.3714 13.5306 12.5918C13.3619 12.8122 13.1088 12.9224 12.7714 12.9224Z"/>
</symbol><symbol id="icon-temperature" viewBox="0 0 13 25">
<path fill-rule="evenodd" clip-rule="evenodd" d="M10.3999 4.2V13.7278C11.6274 14.8264 12.3999 16.423 12.3999 18.2C12.3999 21.5137 9.71359 24.2 6.3999 24.2C3.08621 24.2 0.399902 21.5137 0.399902 18.2C0.399902 16.423 1.1724 14.8264 2.39992 13.7278V4.2C2.39992 1.99087 4.19078 0.200012 6.3999 0.200012C8.60903 0.200012 10.3999 1.99087 10.3999 4.2ZM2.39992 18.2C2.39992 20.4091 4.19078 22.2 6.3999 22.2C8.60903 22.2 10.3999 20.4091 10.4 18.2C10.4 17.0451 9.91056 15.9738 9.06615 15.2181L8.39997 14.6218V4.2C8.39997 3.09539 7.50451 2.19998 6.39995 2.19998C5.29539 2.19998 4.39993 3.09543 4.39993 4.2V14.6218L3.73375 15.2181C2.88934 15.9738 2.39992 17.0452 2.39992 18.2ZM5.39992 8.20003H7.39993V15.3707C8.56511 15.7826 9.3999 16.8938 9.3999 18.2C9.3999 19.8569 8.05676 21.2 6.3999 21.2C4.74305 21.2 3.3999 19.8569 3.3999 18.2C3.3999 16.8938 4.23472 15.7825 5.39992 15.3707V8.20003Z"/>
</symbol></svg>