<svg width="37" height="24" viewBox="0 0 37 24" fill="none" xmlns="http://www.w3.org/2000/svg">

  <g id="flag">
<path id="Combined Shape" fill-rule="evenodd" clip-rule="evenodd" d="M37 8V16V24H0V16V8V0H37V8Z" fill="white"/>
<path id="Path" d="M3.69243 0.740448C2.20561 0.740448 1 1.00268 1 1.32615V22.4127C1 22.7362 2.20561 22.9985 3.69243 22.9985H36V0.740448H3.69243Z" fill="white"/>
<path id="Path_2" d="M1.58531 0.740448C1.26209 0.740448 1 1.00268 1 1.32615V22.4127C1 22.7362 1.26209 22.9985 1.58531 22.9985H8.6087V0.740448H1.58531Z" fill="#D32F2F"/>
<path id="Path_3" d="M35.4145 0.740448H28.3911V22.9985H35.4145C35.7377 22.9985 35.9998 22.7362 35.9998 22.4127V1.32615C35.9998 1.00268 35.7377 0.740448 35.4145 0.740448Z" fill="#D32F2F"/>
<path id="Path_4" d="M21.962 14.1279L25.348 12.0952L24.571 11.6871C24.3531 11.5726 24.2284 11.3254 24.2606 11.0716L24.5134 9.08041L23.08 9.51855C22.7633 9.61539 22.4347 9.41071 22.3634 9.07246L22.2262 8.42054L20.8802 10.0755C20.6936 10.3049 20.3381 10.1297 20.3868 9.83222L20.9616 6.32081L20.0816 6.5737C19.8245 6.64758 19.553 6.52467 19.4277 6.27762L18.501 4.45284V4.45013L18.5003 4.45148L18.4996 4.45013V4.45284L17.5729 6.27762C17.4474 6.5246 17.176 6.64751 16.9189 6.5737L16.0388 6.32081L16.6136 9.83222C16.6623 10.1295 16.3068 10.3048 16.1202 10.0755L14.7742 8.42054L14.6369 9.07246C14.5657 9.41078 14.237 9.61532 13.9204 9.51855L12.4869 9.08041L12.7397 11.0716C12.7719 11.3253 12.6472 11.5726 12.4293 11.6871L11.6523 12.0952L15.0383 14.1279C15.389 14.3385 15.5427 14.7851 15.4012 15.1825L15.1118 15.9959L18.0131 15.7357C18.1736 15.7213 18.3103 15.8571 18.3056 16.0262L18.2142 19.2888H18.7848L18.6933 16.0261C18.6886 15.8569 18.8253 15.7211 18.9858 15.7355L21.8885 15.9959L21.599 15.1825C21.4577 14.785 21.6113 14.3384 21.962 14.1279Z" fill="#D32F2F"/>
</g>
</svg>
