<svg width="35" height="25" viewBox="0 0 35 25" fill="none" xmlns="http://www.w3.org/2000/svg">
<path d="M35 24.0213H0V0.0212936H35V24.0213Z" fill="white"/>
<rect x="1" y="1.02129" width="32.9357" height="21.9574" fill="#F0F0F0"/>
<rect x="1" y="3.76569" width="32.9357" height="2.7444" fill="#D80027"/>
<rect x="1" y="9.25521" width="32.9357" height="2.7444" fill="#D80027"/>
<rect x="1" y="14.744" width="32.9357" height="2.7444" fill="#D80027"/>
<rect x="1" y="20.2335" width="32.9357" height="2.7444" fill="#D80027"/>
<rect x="1" y="1.02129" width="16.4678" height="11.8232" fill="#2E52B2"/>
<path d="M7.42095 5.86471L7.15572 6.68064H6.29785L6.99201 7.18464L6.72679 8.00051L7.42095 7.4965L8.11465 8.00051L7.84949 7.18464L8.54365 6.68064H7.68572L7.42095 5.86471Z" fill="#F0F0F0"/>
<path d="M7.68572 9.62503L7.42095 8.80917L7.15572 9.62503H6.29785L6.99201 10.1291L6.72679 10.945L7.42095 10.4409L8.11465 10.945L7.84949 10.1291L8.54365 9.62503H7.68572Z" fill="#F0F0F0"/>
<path d="M4.06029 9.62503L3.79546 8.80917L3.53023 9.62503H2.67236L3.36652 10.1291L3.1013 10.945L3.79546 10.4409L4.48923 10.945L4.22407 10.1291L4.9181 9.62503H4.06029Z" fill="#F0F0F0"/>
<path d="M3.79546 5.86471L3.53023 6.68064H2.67236L3.36652 7.18464L3.1013 8.00051L3.79546 7.4965L4.48923 8.00051L4.22407 7.18464L4.9181 6.68064H4.06029L3.79546 5.86471Z" fill="#F0F0F0"/>
<path d="M7.42095 2.92018L7.15572 3.73618H6.29785L6.99201 4.24025L6.72679 5.05611L7.42095 4.55204L8.11465 5.05611L7.84949 4.24025L8.54365 3.73618H7.68572L7.42095 2.92018Z" fill="#F0F0F0"/>
<path d="M3.79546 2.92018L3.53023 3.73618H2.67236L3.36652 4.24025L3.1013 5.05611L3.79546 4.55204L4.48923 5.05611L4.22407 4.24025L4.9181 3.73618H4.06029L3.79546 2.92018Z" fill="#F0F0F0"/>
<path d="M11.0469 5.86471L10.7817 6.68064H9.92383L10.6179 7.18464L10.3528 8.00051L11.0469 7.4965L11.7407 8.00051L11.4755 7.18464L12.1696 6.68064H11.3118L11.0469 5.86471Z" fill="#F0F0F0"/>
<path d="M11.3118 9.62503L11.0469 8.80917L10.7817 9.62503H9.92383L10.6179 10.1291L10.3528 10.945L11.0469 10.4409L11.7407 10.945L11.4755 10.1291L12.1696 9.62503H11.3118Z" fill="#F0F0F0"/>
<path d="M14.9372 9.62503L14.6723 8.80917L14.4071 9.62503H13.5493L14.2433 10.1291L13.9782 10.945L14.6723 10.4409L15.3661 10.945L15.1009 10.1291L15.7951 9.62503H14.9372Z" fill="#F0F0F0"/>
<path d="M14.6723 5.86471L14.4071 6.68064H13.5493L14.2433 7.18464L13.9782 8.00051L14.6723 7.4965L15.3661 8.00051L15.1009 7.18464L15.7951 6.68064H14.9372L14.6723 5.86471Z" fill="#F0F0F0"/>
<path d="M11.0469 2.92018L10.7817 3.73618H9.92383L10.6179 4.24025L10.3528 5.05611L11.0469 4.55204L11.7407 5.05611L11.4755 4.24025L12.1696 3.73618H11.3118L11.0469 2.92018Z" fill="#F0F0F0"/>
<path d="M14.6723 2.92018L14.4071 3.73618H13.5493L14.2433 4.24025L13.9782 5.05611L14.6723 4.55204L15.3661 5.05611L15.1009 4.24025L15.7951 3.73618H14.9372L14.6723 2.92018Z" fill="#F0F0F0"/>
</svg>
